<svg height="512" viewBox="0 0 59 59" width="512" xmlns="http://www.w3.org/2000/svg"><g fill="none"><path d="M55.456 49.8l1.414 1.414a4 4 0 11-5.657 5.657L49.8 55.456 37.07 42.73l-2.6-2.6 5.66-5.66 2.6 2.6z" fill="#35495e"/><circle cx="22" cy="22" fill="#3f5c6c" r="22"/><path d="M40 22c.02 9.731-7.683 17.724-17.408 18.063-9.725.34-17.966-7.097-18.625-16.806s6.504-18.19 16.186-19.166c9.682-.976 18.394 5.904 19.687 15.549.109.782.162 1.57.16 2.36z" fill="#67b9cc"/><path d="M40 22a17.99 17.99 0 01-28.84 14.36A16.706 16.706 0 0111 34a17.99 17.99 0 0128.84-14.36c.109.782.162 1.57.16 2.36z" fill="#2fa8cc"/><path d="M12 23h2a1 1 0 011 1v6h-4v-6a1 1 0 011-1zm9-3h2a1 1 0 011 1v9h-4v-9a1 1 0 011-1zm9-3h2a1 1 0 011 1v12h-4V18a1 1 0 011-1z" fill="#f0c419"/><path d="M27.99 9.013a.986.986 0 00-.066-.4A1 1 0 0027 8h-4a1 1 0 000 2h1.586L21 13.586l-2.293-2.293a1 1 0 00-1.414 0l-8 8a1 1 0 101.414 1.414L18 13.414l2.293 2.293a1 1 0 001.414 0L26 11.414v1.648a1 1 0 002 0v-4c0-.017-.009-.032-.01-.049z" fill="#955ba5"/><path d="M55.46 49.8l-5.66 5.66a2 2 0 01-2.83 0l-9.9-9.9a2 2 0 010-2.83l5.66-5.66a2 2 0 012.83 0l1.41 1.42h.01l1.4 1.4v.01l1.42 1.41 1.41 1.41v.01l1.42 1.41 1.41 1.41v.01l1.42 1.41a2 2 0 010 2.83z" fill="#ff5364"/><path d="M42.02 46.26l-2.12 2.12h-.01l-1.4-1.4v-.01l2.12-2.12a1 1 0 011.41 1.41zm2.83 2.83l-2.12 2.12h-.01l-1.41-1.41 2.13-2.12a1 1 0 011.41 1.41zm2.83 2.83l-2.12 2.12h-.01l-1.41-1.41 2.12-2.12a1.008 1.008 0 011.42 0 1 1 0 010 1.41zm.7-12.03v.01l-2.12 2.12a1 1 0 01-1.41 0 1 1 0 010-1.41l2.12-2.12h.01zm2.83 2.83v.01l-2.12 2.12a1 1 0 01-1.41 0 1 1 0 010-1.41l2.12-2.13zm2.83 2.83v.01l-2.12 2.12a1 1 0 01-1.41-1.42l2.12-2.12z" fill="#df4d60"/><path d="M34 31H10a1 1 0 010-2h24a1 1 0 010 2z" fill="#e57e25"/></g></svg>