<svg height="512" viewBox="0 0 58 58" width="512" xmlns="http://www.w3.org/2000/svg"><g fill="none"><path d="M56 21.93c.083 6.023-4.727 10.977-10.75 11.07H11.02A9.157 9.157 0 012 23.72c0-.502.04-1.004.12-1.5a9.109 9.109 0 018.9-7.77h.18a10.232 10.232 0 0110.02-8.87 9.776 9.776 0 012.7.37A12.512 12.512 0 0134.52 0a12.751 12.751 0 0112.47 11.02 10.948 10.948 0 018.91 9.4c.069.5.102 1.005.1 1.51z" fill="#d1d4d1"/><path d="M55.9 20.42A10.866 10.866 0 0145.25 30H11.02a9.109 9.109 0 01-8.9-7.78 9.109 9.109 0 018.9-7.77h.18a10.232 10.232 0 0110.02-8.87 9.776 9.776 0 012.7.37A12.512 12.512 0 0134.52 0a12.751 12.751 0 0112.47 11.02 10.948 10.948 0 018.91 9.4z" fill="#ecf0f1"/><path d="M44 37H30v-8h7a3 3 0 003-3v-2a1 1 0 00-2 0v2a1 1 0 01-1 1h-7V17a1 1 0 00-2 0v10h-7a1 1 0 01-1-1v-2a1 1 0 00-2 0v2a3 3 0 003 3h7v8H14a3 3 0 00-3 3v2a1 1 0 002 0v-2a1 1 0 011-1h30a1 1 0 011 1v2a1 1 0 002 0v-2a3 3 0 00-3-3z" fill="#ff5364"/><g fill="#f0c419"><circle cx="19" cy="21" r="3"/><circle cx="39" cy="21" r="3"/><circle cx="29" cy="14" r="3"/></g><rect fill="#547580" height="6" rx="2" width="24" y="52"/><rect fill="#547580" height="6" rx="2" width="24" y="42"/><path d="M2 48h20v4H2z" fill="#35495e"/><path d="M5 56v2H3v-2a1 1 0 012 0z" fill="#f0c419"/><path d="M9 56v2H7v-2a1 1 0 012 0z" fill="#67b9cc"/><path d="M5 46v2H3v-2a1 1 0 012 0z" fill="#f0c419"/><path d="M9 46v2H7v-2a1 1 0 012 0z" fill="#67b9cc"/><rect fill="#547580" height="6" rx="2" width="24" x="34" y="52"/><rect fill="#547580" height="6" rx="2" width="24" x="34" y="42"/><path d="M36 48h20v4H36z" fill="#35495e"/><path d="M39 56v2h-2v-2a1 1 0 012 0z" fill="#f0c419"/><path d="M43 56v2h-2v-2a1 1 0 012 0z" fill="#67b9cc"/><path d="M39 46v2h-2v-2a1 1 0 012 0z" fill="#f0c419"/><path d="M43 46v2h-2v-2a1 1 0 012 0z" fill="#67b9cc"/></g></svg>