<svg xmlns="http://www.w3.org/2000/svg" viewBox="0 0 512 512"><path fill="#7f8c8d" d="M194.207 414.897h35.31v70.621h-35.31z"/><path fill="#35495e" d="M370.759 320.265V256H52.966v70.621z"/><path d="M17.655 317.793h388.414c9.751 0 17.655 7.905 17.655 17.655v70.621c0 9.751-7.904 17.655-17.655 17.655H17.655C7.904 423.724 0 415.82 0 406.069v-70.621c0-9.75 7.904-17.655 17.655-17.655z" fill="#95a5a5"/><circle cx="52.966" cy="370.759" r="17.655" fill="#ff5364"/><path d="M123.586 379.586h-17.655a8.828 8.828 0 010-17.656h17.655a8.828 8.828 0 010 17.656zm52.966 0h-17.655a8.828 8.828 0 010-17.656h17.655a8.828 8.828 0 010 17.656z" fill="#f0c419"/><path fill="#35495e" d="M370.759 161.368V97.103H52.966v70.621z"/><path d="M17.655 158.897h388.414c9.751 0 17.655 7.904 17.655 17.655v70.621c0 9.751-7.904 17.655-17.655 17.655H17.655C7.904 264.828 0 256.923 0 247.172v-70.621c0-9.75 7.904-17.654 17.655-17.654z" fill="#95a5a5"/><circle cx="52.966" cy="211.862" r="17.655" fill="#ff5364"/><path d="M123.586 220.69h-17.655a8.828 8.828 0 010-17.656h17.655a8.828 8.828 0 010 17.656zm52.966 0h-17.655a8.828 8.828 0 010-17.656h17.655a8.828 8.828 0 010 17.656z" fill="#f0c419"/><path d="M17.655 0h388.414c9.751 0 17.655 7.904 17.655 17.655v70.621c0 9.751-7.904 17.655-17.655 17.655H17.655C7.904 105.931 0 98.027 0 88.276V17.655C0 7.904 7.904 0 17.655 0z" fill="#95a5a5"/><circle cx="52.966" cy="52.966" r="17.655" fill="#ff5364"/><path d="M123.586 61.793h-17.655a8.828 8.828 0 010-17.656h17.655a8.828 8.828 0 010 17.656zm52.966 0h-17.655a8.828 8.828 0 010-17.656h17.655a8.828 8.828 0 010 17.656z" fill="#f0c419"/><path d="M414.897 512H8.828A8.827 8.827 0 010 503.172v-17.655a8.828 8.828 0 018.828-8.828h406.069V512z" fill="#b0d3f0"/><path d="M494.345 194.207c9.751 0 17.655 7.904 17.655 17.655v113.126S512 441.874 388.414 512c-123.586-70.126-123.586-187.012-123.586-187.012V211.862c0-9.751 7.904-17.655 17.655-17.655h211.862z" fill="#46b29d"/><path d="M388.414 470.449c-87.208-59.445-88.276-144.561-88.276-145.47v-95.462H476.69v95.462c-.053 3.495-2.375 86.907-88.276 145.47z" fill="#65ddb9"/><path d="M388.414 479.276a8.828 8.828 0 01-4.978-16.119c82.282-56.09 84.374-134.974 84.427-138.302v-86.51a8.828 8.828 0 010-17.656c9.751 0 17.655 7.904 17.655 17.655v86.634c-.053 3.84-2.375 91.577-92.134 152.761a8.818 8.818 0 01-4.97 1.537zm-52.966-50.909a8.827 8.827 0 01-7.159-3.646 188.215 188.215 0 01-36.979-99.743v-86.634c0-9.751 7.905-17.655 17.655-17.655h97.103a8.828 8.828 0 010 17.656h-97.103v86.634a172.061 172.061 0 0033.633 89.379 8.827 8.827 0 01-7.15 14.009z" fill="#fff"/><path d="M369.655 370.759a8.827 8.827 0 01-6.241-2.586l-16.552-16.552a8.828 8.828 0 0112.483-12.483l10.311 10.311 65.483-65.483a8.828 8.828 0 0112.483 12.483l-71.724 71.724a8.84 8.84 0 01-6.243 2.586z" fill="#ff5364"/></svg>