<svg xmlns="http://www.w3.org/2000/svg" viewBox="0 0 512.003 512.003" width="512" height="512"><path d="M252.825 511.662c-2.205-.48-54.623-12.074-107.813-40.98-73.077-39.714-111.703-93.077-111.703-154.321V75.571c0-8.311 6.716-15.049 15-15.049 79.622 0 127.106-15.015 155.437-27.61 29.351-13.05 39.488-26.216 40.363-27.194 6.515-8.173 18.44-7.401 23.887 1.15.908 1.195 12.976 13.884 39.664 26.499 26.209 12.387 77.033 27.155 156.034 27.155 8.284 0 15 6.738 15 15.049v240.79c0 61.244-38.626 114.607-111.702 154.321-53.19 28.906-105.608 40.5-107.813 40.98a14.992 14.992 0 01-6.354 0z" fill="#16b7bd"/><path d="M463.694 60.521c-79.001 0-129.825-14.767-156.034-27.155-26.688-12.615-38.756-25.304-39.664-26.499-2.617-4.109-6.903-6.72-11.994-6.841v511.976c9.099 0 222.692-50.316 222.692-195.642V75.571c0-8.312-6.716-15.05-15-15.05z" fill="#139da4"/><path d="M211.048 246.13v-50.666c0-23.484 18.499-44.646 45.406-44.646 24.537 0 44.5 20.029 44.5 44.646 0 8.311 6.716 15.049 15 15.049s15-6.738 15-15.049c0-39.919-31.782-74.745-75.406-74.745-41.079 0-74.5 33.531-74.5 74.745v50.666h30z" fill="#e1e4f9"/><path d="M256.001 120.719v30.099c25.96 0 44.953 20.822 44.953 44.646 0 8.311 6.716 15.049 15 15.049s15-6.738 15-15.049c0-40.345-32.375-74.745-74.953-74.745z" fill="#d6daf6"/><path d="M346.001 241.114h-180c-8.284 0-15 6.738-15 15.049v120.395c0 8.311 6.716 15.049 15 15.049h180c8.284 0 15-6.738 15-15.049V256.163c0-8.311-6.716-15.049-15-15.049zm-90 90.296c-8.284 0-15-6.738-15-15.049s6.716-15.049 15-15.049 15 6.738 15 15.049-6.716 15.049-15 15.049z" fill="#feb655"/><path d="M346.001 241.114h-90v60.198c8.284 0 15 6.738 15 15.049s-6.716 15.049-15 15.049v60.198h90c8.284 0 15-6.738 15-15.049V256.163c0-8.311-6.716-15.049-15-15.049z" fill="#fd9a2b"/><path d="M241.001 316.361c0 8.311 6.716 15.049 15 15.049v-30.099c-8.284 0-15 6.738-15 15.05zm30 0c0-8.311-6.716-15.049-15-15.049v30.099c8.284-.001 15-6.739 15-15.05z" fill="none"/></svg>