<svg height="512" width="512" xmlns="http://www.w3.org/2000/svg"><path d="M120 72h320a32 32 0 0132 32v248a24 24 0 01-24 24H112a24 24 0 01-24-24V104a32 32 0 0132-32z" fill="#4db7e5"/><path d="M440 72h-8v304h16V73.008A32.066 32.066 0 00440 72z" fill="#48add9"/><path d="M400 24H160a32 32 0 00-32 32v336h304V56a32 32 0 00-32-32z" fill="#348fd9"/><path d="M432 100L140 392h292z" fill="#3086cd"/><path d="M159.996 48h16v16h-16zm32 0h16v16h-16zm32 0h16v16h-16zM160 80h240v16H160z" fill="#2a71ad"/><path d="M384 224q0 4.035-.3 8a103.866 103.866 0 01-89.22 94.99c-2.14.31-4.3.54-6.48.71q-3.96.3-8 .3t-8-.3c-2.18-.17-4.34-.4-6.48-.71a102.673 102.673 0 01-24.22-6.43 103.993 103.993 0 01-65-88.56q-.3-3.96-.3-8t.3-8a103.683 103.683 0 0121.72-56 104.3 104.3 0 0143.3-32.57 102.991 102.991 0 0123.07-6.26q3.765-.57 7.61-.87 3.96-.3 8-.3t8 .3c2.18.17 4.34.4 6.48.71a102.625 102.625 0 0124.2 6.42 104.352 104.352 0 0153.6 48.57 103.167 103.167 0 0111.42 40q.3 3.96.3 8z" fill="#4db7e5"/><path d="M383.7 232q.3-3.96.3-8t-.3-8h-39.85a203.479 203.479 0 00-5.48-40h33.91a103.39 103.39 0 00-10.3-16h-28.24a164.522 164.522 0 00-15.06-32.57 102.625 102.625 0 00-24.2-6.42l5.58 7.2A140.136 140.136 0 01316.75 160H288v-39.7q-3.96-.3-8-.3t-8 .3V160h-28.75a139.619 139.619 0 0116.78-31.91c.1-.13.18-.27.27-.4l4.09-6.52a102.991 102.991 0 00-23.07 6.26A164 164 0 00226.26 160h-28.24a103.39 103.39 0 00-10.3 16h33.91a203.273 203.273 0 00-5.48 40H176.3q-.3 3.96-.3 8t.3 8h39.86a200.472 200.472 0 007.64 48h-31.46a104.41 104.41 0 0012.62 16h24.26a155.639 155.639 0 0012.08 24.56 102.673 102.673 0 0024.22 6.43l-5.58-7.21A132.481 132.481 0 01246.53 296H272v31.7q3.96.3 8 .3t8-.3V296h25.47a131.953 131.953 0 01-13.41 23.78l-5.58 7.21a102.673 102.673 0 0024.22-6.43A154.767 154.767 0 00330.78 296h24.26a104.41 104.41 0 0012.62-16H336.2a200.792 200.792 0 007.64-48zM272 280h-31.47a182.9 182.9 0 01-8.36-48H272zm0-64h-39.84a185.906 185.906 0 015.97-40H272zm47.47 64H288v-48h39.83a183.261 183.261 0 01-8.36 48zM288 216v-40h33.87a186.186 186.186 0 015.97 40z" fill="#60d1e0"/><path d="M332.686 368a27.313 27.313 0 01-19.313 8H248a27.317 27.317 0 01-19.314-8 27.313 27.313 0 00-19.313-8H72v24a24 24 0 0024 24h368a24 24 0 0024-24v-24H352a27.317 27.317 0 00-19.314 8z" fill="#e0e0de"/><path d="M456 360v24a24 24 0 01-24 24h32a24 24 0 0024-24v-24z" fill="#d6d6d4"/><path d="M248 370v100a17.778 17.778 0 01-2.46 9.07A17.967 17.967 0 01230 488H42a17.967 17.967 0 01-15.54-8.93A17.778 17.778 0 0124 470V370a17.778 17.778 0 012.46-9.07A17.967 17.967 0 0142 352h188a17.967 17.967 0 0115.54 8.93A17.778 17.778 0 01248 370z" fill="#ffb531"/><path d="M245.54 360.93c-24.77 13.79-64.61 22.74-109.54 22.74s-84.77-8.95-109.54-22.74A17.967 17.967 0 0142 352h188a17.967 17.967 0 0115.54 8.93z" fill="#ffcb73"/><path d="M245.54 479.07A17.967 17.967 0 01230 488H42a17.967 17.967 0 01-15.54-8.93c24.77-13.79 64.61-22.74 109.54-22.74s84.77 8.95 109.54 22.74z" fill="#ffa912"/><path d="M136 216a88 88 0 00-88 88v48h32v-48a56 56 0 01112 0v48h32v-48a88 88 0 00-88-88z" fill="#e0e0de"/><path d="M160 416a24 24 0 10-32 22.525V456h16v-17.474A23.96 23.96 0 00160 416z" fill="#95573a"/></svg>