<svg height="640" viewBox="0 -8 480 480" width="640" xmlns="http://www.w3.org/2000/svg"><path d="M64 200h352v136H64zm0 0" fill="#264b74"/><path d="M69.602 146.398C71.199 144.801 72 143.2 72 140.801V120H24v20.8c0 2.4.8 4 2.398 5.598L32 152v232l-5.602 5.602C24.801 391.199 24 392.8 24 395.199V416h48v-20.8c0-2.4-.8-4-2.398-5.598L64 384V152zm84.796 0L160 152v48h32v-48l5.602-5.602c1.597-1.597 2.398-3.199 2.398-5.597V120h-48v20.8c0 2.4.8 4 2.398 5.598zm128 0L288 152v48h32v-48l5.602-5.602c1.597-1.597 2.398-3.199 2.398-5.597V120h-48v20.8c0 2.4.8 4 2.398 5.598zm0 0" fill="#b4b4b5"/><path d="M8 416h464v48H8zm0 0" fill="#8c8c8c"/><path d="M453.602 146.398c1.597-1.597 2.398-3.199 2.398-5.597V120h-48v20.8c0 2.4.8 4 2.398 5.598L416 152v232l-5.602 5.602c-1.597 1.597-2.398 3.199-2.398 5.597V416h48v-20.8c0-2.4-.8-4-2.398-5.598L448 384V152zm0 0" fill="#b4b4b5"/><path d="M24 88v32h432V88L240 0z" fill="#8c8c8c"/><path d="M208 312h-40v-88h40c13.602 0 24 10.398 24 24v40c0 13.602-10.398 24-24 24zm-24-16h24c4.8 0 8-3.2 8-8v-40c0-4.8-3.2-8-8-8h-24zm80 16h-16v-88h40c13.602 0 24 10.398 24 24v8c0 13.602-10.398 24-24 24h-24zm0-48h24c4.8 0 8-3.2 8-8v-8c0-4.8-3.2-8-8-8h-24zm128 48h-16v-17.602c0-2.398-.8-4-2.398-5.597l-11.204-11.2 11.204-11.203 11.199 11.204C389.6 282.398 392 288 392 294.398zm-264 0h-16c-13.602 0-24-10.398-24-24v-40c0-13.602 10.398-24 24-24h16c13.602 0 24 10.398 24 24v8h-16v-8c0-4.8-3.2-8-8-8h-16c-4.8 0-8 3.2-8 8v40c0 4.8 3.2 8 8 8h16c4.8 0 8-3.2 8-8v-8h-16v-16h32v24c0 13.602-10.398 24-24 24zm0 0" fill="#edc17c"/><path d="M240 32L96 88h288zm0 0" fill="#b4b4b5"/><path d="M344 312h-16v-88h40c13.602 0 24 10.398 24 24v8c0 13.602-10.398 24-24 24h-24zm0-48h24c4.8 0 8-3.2 8-8v-8c0-4.8-3.2-8-8-8h-24zm0 0" fill="#edc17c"/><path d="M325.602 389.602L320 384v-48h-32v48l-5.602 5.602c-1.597 1.597-2.398 3.199-2.398 5.597V416h48v-20.8c0-2.4-.8-4-2.398-5.598zm-128 0L192 384v-48h-32v48l-5.602 5.602c-1.597 1.597-2.398 3.199-2.398 5.597V416h48v-20.8c0-2.4-.8-4-2.398-5.598zm0 0" fill="#b4b4b5"/><path d="M0 112h480v16H0zm0-32h480v16H0zm0 0" fill="#7a7a7a"/></svg>