<svg height="464pt" viewBox="-16 0 464 464" width="464pt" xmlns="http://www.w3.org/2000/svg"><path d="M280 0h-80c-8.8 0-16 7.2-16 16v16l32 8v48h48V40l32-8V16c0-8.8-7.2-16-16-16zm0 0" fill="#878b9b"/><path d="M432 272c0 106.04-85.96 192-192 192S48 378.04 48 272 133.96 80 240 80s192 85.96 192 192zM216 40h48l32-8V16c0-8.8-7.2-16-16-16h-80c-8.8 0-16 7.2-16 16v16zm0 0" fill="#4a4a56"/><path d="M240 440c-92.8 0-168-75.2-168-168v-8h48v16H88c4.8 84 76 148 160 144s148-76 144-160c-4-77.602-66.398-140-144-144v24h-16v-40h8c92.8 0 168 75.2 168 168s-75.2 168-168 168zm106.5-325.816l32.242-32.243 11.317 11.313-32.247 32.242zm0 0" fill="#878b9b"/><path d="M362.5 77.82l11.316-11.312L406.06 98.75l-11.313 11.313zm0 0" fill="#4a4a56"/><path d="M306.46 154.223l23.759-23.758 11.312 11.312-23.758 23.762zM368 264h32v16h-32zM232 400h16v32h-16zm90.457-34.223l11.316-11.312 23.758 23.758-11.312 11.312zM122.46 386.223l23.759-23.762 11.312 11.316-23.758 23.758zm0 0" fill="#878b9b"/><path d="M240 280l-32 64h-32v-32l56-40zm0 0" fill="#5da364"/><path d="M72 200H16c-8.8 0-16-7.2-16-16V80c0-8.8 7.2-16 16-16h152c8.8 0 16 7.2 16 16v104c0 8.8-7.2 16-16 16h-48l-24 32zm0 0" fill="#f4c167"/><path d="M32 160h16v16H32zm0-72h16v56H32zm40 16h80v16H72zm0 32h80v16H72zm0 0" fill="#4a4a56"/></svg>