<svg height="512" viewBox="0 0 64 64" width="512" xmlns="http://www.w3.org/2000/svg"><path d="M28 14h-2V9.8c0-.3-.1-.5-.3-.7l-2.4-2.4 1.4-1.4 2.4 2.4c.6.6.9 1.3.9 2.1zm-9 3h-2v-5.2c0-.3-.1-.5-.3-.7l-4.4-4.4 1.4-1.4 4.4 4.4c.6.6.9 1.3.9 2.1zM6 31h11v2H6zm.7 16.7l-1.4-1.4 5.4-5.4c.6-.6 1.3-.9 2.1-.9H19v2h-6.2c-.3 0-.5.1-.7.3zM31 50h2v8h-2zm17 6h-2v-4.2c0-.3-.1-.5-.3-.7l-5.4-5.4 1.4-1.4 5.4 5.4c.6.6.9 1.3.9 2.1zm5.2-26H48v-2h5.2c.3 0 .5-.1.7-.3l3.4-3.4 1.4 1.4-3.4 3.4c-.6.6-1.3.9-2.1.9zM18 56h-2v-3.2c0-.8.3-1.6.9-2.1l5.4-5.4 1.4 1.4-5.4 5.4c-.2.2-.3.4-.3.7zm-1.7-29.3l-6.4-6.4c-.2-.2-.5-.3-.7-.3H6v-2h3.2c.8 0 1.6.3 2.1.9l6.4 6.4zm31.4-2l-1.4-1.4 7.4-7.4c.2-.2.3-.4.3-.7V6h2v9.2c0 .8-.3 1.6-.9 2.1zm9.6 19l-4.4-4.4c-.2-.2-.4-.3-.7-.3H46v-2h6.2c.8 0 1.6.3 2.1.9l4.4 4.4zM38 14h-2V9.8c0-.8.3-1.6.9-2.1l2.4-2.4 1.4 1.4-2.4 2.4c-.2.2-.3.5-.3.7z" fill="#5b627c"/><circle cx="23" cy="5" fill="#3a3a51" r="2"/><circle cx="12" cy="5" fill="#3a3a51" r="2"/><circle cx="41" cy="5" fill="#3a3a51" r="2"/><circle cx="55" cy="5" fill="#3a3a51" r="2"/><circle cx="5" cy="19" fill="#3a3a51" r="2"/><circle cx="5" cy="32" fill="#3a3a51" r="2"/><circle cx="5" cy="48" fill="#3a3a51" r="2"/><circle cx="17" cy="57" fill="#3a3a51" r="2"/><circle cx="32" cy="59" fill="#3a3a51" r="2"/><circle cx="59" cy="24" fill="#3a3a51" r="2"/><circle cx="47" cy="57" fill="#3a3a51" r="2"/><circle cx="59" cy="44" fill="#3a3a51" r="2"/><path d="M32 11l16 5.6v14.6c0 6.4-3.1 12.4-8.2 16.2L32 53l-7.8-5.7C19 43.5 16 37.5 16 31.1V16.6z" fill="#1b4666"/><path d="M27 20h2v3h-2zm4 0h2v3h-2zm4 0h2v3h-2zm-8 19h2v3h-2zm4 0h2v3h-2zm4 0h2v3h-2zm5-13h3v2h-3zm0 4h3v2h-3zm0 4h3v2h-3zm-19-8h3v2h-3zm0 4h3v2h-3zm0 4h3v2h-3z" fill="#e0af00"/><path d="M26 23h12c1.1 0 2 .9 2 2v12c0 1.1-.9 2-2 2H26c-1.1 0-2-.9-2-2V25c0-1.1.9-2 2-2z" fill="#ffc700"/><path d="M29 28h6v6h-6z" fill="#e0af00"/></svg>