<svg height="464pt" viewBox="0 -44 464 464" width="464pt" xmlns="http://www.w3.org/2000/svg"><path d="M16 0h432c8.8 0 16 7.2 16 16v304c0 8.8-7.2 16-16 16H16c-8.8 0-16-7.2-16-16V16C0 7.2 7.2 0 16 0zm0 0" fill="#d6d7d8"/><path d="M0 64h464V16c0-8.8-7.2-16-16-16H16C7.2 0 0 7.2 0 16zm0 0" fill="#4a4a56"/><path d="M24 24h16v16H24zm0 0" fill="#dd5b5b"/><path d="M56 24h16v16H56zm0 0" fill="#edc17c"/><path d="M88 24h16v16H88zm0 0" fill="#2ab793"/><path d="M120 24h320v16H120zm0 0" fill="#878b9b"/><path d="M32 96h112v16H32zm0 0" fill="#b4b4b5"/><path d="M40 136h208v64H40zm0 96h208v64H40zm0 0" fill="#edd9be"/><path d="M368 136l96 32v60c0 56.8-30.398 109.602-79.2 138.398L368 376l-16.8-9.602C302.397 337.602 272 284.801 272 228v-60zm0 0" fill="#239172"/><path d="M364 351.2l-8-13.598c44.8-26.403 68-67.204 68-123.204V200h16v13.602c0 62.398-25.602 108-76 137.597zm0 0" fill="#2ab793"/><path d="M64 256h16v16H64zm32 0h16v16H96zm32 0h16v16h-16zm32 0h16v16h-16zm32 0h16v16h-16zm32 0h16v16h-16zm0 0" fill="#ceb195"/></svg>