<svg height="640" viewBox="0 0 480 480" width="640" xmlns="http://www.w3.org/2000/svg"><path d="M168 432h144c26.512 0 48 21.488 48 48H120c0-26.512 21.488-48 48-48zm0 0" fill="#bab8b9"/><path d="M288 448H144c-4.648 0-9.137.695-13.383 1.93C123.984 458.16 120 468.61 120 480h213.207c-6.59-18.633-24.32-32-45.207-32zm0 0" fill="#d9d7d8"/><path d="M184 384h112v48H184zm0 0" fill="#bab8b9"/><path d="M184 384h88v48h-88zm0 0" fill="#d9d7d8"/><path d="M80 112H16c-8.84 0-16 7.16-16 16v240c0 8.84 7.16 16 16 16h448c8.84 0 16-7.16 16-16V128c0-8.84-7.16-16-16-16h-64" fill="#85b6cf"/><path d="M448 368V128c0-8.84-7.16-16-16-16H16c-8.84 0-16 7.16-16 16v240c0 8.84 7.16 16 16 16h416c8.84 0 16-7.16 16-16zm0 0" fill="#94cce7"/><path d="M80 16h320v240H80zm0 0" fill="#eebc5a"/><path d="M224 224v32c0 8.84 7.16 16 16 16s16-7.16 16-16v-32" fill="#bc8f6f"/><path d="M112 192v32h256v-32" fill="#bab8b9"/><path d="M240 208l-1.945-1.945A47.99 47.99 0 00204.12 192H112V0h92.121a48.021 48.021 0 0133.941 14.055L240 16l1.945-1.945c9-9 21.207-14.055 33.934-14.055H368v192h-92.121a48.021 48.021 0 00-33.941 14.055zm0 0" fill="#d9d7d8"/><path d="M144 32h32v32h-32zm160 96h32v32h-32zm0 0" fill="#599072"/><g fill="#bab8b9"><path d="M232 24h16v160h-16zm0 0"/><path d="M240 120a7.982 7.982 0 01-5.664-2.344l-1.938-1.945C224.84 108.16 214.801 104 204.121 104H136V88h68.121c13.262 0 25.832 4.586 35.879 13 10.063-8.414 22.625-13 35.879-13H344v16h-68.121c-10.68 0-20.727 4.16-28.285 11.719l-1.93 1.937A7.982 7.982 0 01240 120zm-104 0h64v16h-64zm0 32h64v16h-64zm144-96h64v16h-64zm0-32h64v16h-64zm0 0"/></g><path d="M136 312h208v16H136zm0 0" fill="#85b6cf"/><path d="M144 320c0 17.672-14.328 32-32 32s-32-14.328-32-32 14.328-32 32-32 32 14.328 32 32zm256 0c0 17.672-14.328 32-32 32s-32-14.328-32-32 14.328-32 32-32 32 14.328 32 32zm0 0" fill="#d46b69"/><path d="M128 320c0-17.05-10.746-30.871-24-30.871S80 302.949 80 320s10.746 30.871 24 30.871 24-13.82 24-30.871zm256 0c0-17.05-10.746-30.871-24-30.871s-24 13.82-24 30.871 10.746 30.871 24 30.871 24-13.82 24-30.871zm0 0" fill="#ed7775"/></svg>