<svg height="491pt" viewBox="0 0 491 491.999" width="491pt" xmlns="http://www.w3.org/2000/svg"><path d="M191.555 395.133l19.886-48.29a6.003 6.003 0 00-3.261-7.835 6.003 6.003 0 00-7.836 3.262l-19.89 48.293c-26.352-7.415-53.915 7.011-62.849 32.89-8.933 25.875 3.864 54.23 29.18 64.652 25.313 10.422 54.363-.703 66.242-25.367 11.88-24.668 2.461-54.316-21.472-67.605zm11.597 60.281c-7.207 17.504-25.78 27.477-44.355 23.82-18.574-3.652-31.98-19.921-32.016-38.851-.039-18.934 13.301-35.254 31.86-38.985 18.562-3.73 37.172 6.168 44.453 23.645a39.418 39.418 0 01.058 30.371zm98.27-358.554l-19.887 48.288a6.003 6.003 0 003.262 7.836 6.003 6.003 0 007.836-3.261l19.89-48.293A51.678 51.678 0 00365.2 85.969a51.687 51.687 0 009.031-54.153c-8.707-20.91-30.015-33.714-52.562-31.59-22.55 2.13-41.09 18.692-45.73 40.86-4.645 22.172 5.69 44.777 25.492 55.773zm-11.598-60.282c7.207-17.504 25.781-27.476 44.356-23.82 18.574 3.652 31.98 19.922 32.015 38.855.04 18.93-13.3 35.25-31.86 38.98-18.562 3.731-37.17-6.167-44.452-23.644a39.418 39.418 0 01-.059-30.37zm170.653 241.656c-24.247-9.945-52.102-.199-64.852 22.696l-48.29-19.887a6.002 6.002 0 00-4.573 11.098l48.289 19.89c-7.516 26.723 7.422 54.614 33.836 63.16 26.41 8.551 54.86-5.296 64.426-31.355 9.566-26.063-3.168-55.024-28.836-65.598zm17.007 62.903c-7.207 17.504-25.78 27.48-44.355 23.824-18.574-3.656-31.98-19.926-32.02-38.86-.039-18.93 13.301-35.253 31.864-38.984 18.562-3.73 37.172 6.172 44.453 23.649a39.436 39.436 0 01.062 30.37zM32.5 213.758c24.246 9.984 52.129.23 64.867-22.692l48.274 19.883a6.003 6.003 0 007.836-3.262 6.003 6.003 0 00-3.262-7.835l-48.29-19.887c7.516-26.723-7.421-54.613-33.835-63.16-26.41-8.551-54.86 5.297-64.426 31.355-9.566 26.063 3.168 55.028 28.836 65.598zm-17.012-62.903c7.211-17.507 25.782-27.48 44.356-23.824 18.578 3.656 31.984 19.926 32.023 38.856.035 18.933-13.305 35.258-31.863 38.988-18.563 3.73-37.176-6.172-44.453-23.648a39.418 39.418 0 01-.063-30.372zm297.61 239.442l-20.082-48.211a5.998 5.998 0 00-10.371-1.41 6 6 0 00-.708 6.02l20.083 48.21c-23.875 13.39-33.168 43.074-21.188 67.692 11.977 24.613 41.074 35.617 66.344 25.09 25.27-10.532 37.945-38.938 28.902-64.774-9.039-25.84-36.66-40.148-62.98-32.625zm50.89 64.8c-7.21 17.505-25.781 27.477-44.355 23.821-18.578-3.652-31.985-19.922-32.02-38.855-.039-18.93 13.301-35.254 31.86-38.985 18.562-3.73 37.172 6.172 44.453 23.645a39.428 39.428 0 01.062 30.375zM165.75 103.695a51.148 51.148 0 0014.129-2l20.082 48.211a6.001 6.001 0 1011.078-4.61l-20.082-48.21c22.664-12.723 32.348-40.305 22.606-64.402-9.739-24.098-35.864-37.207-61.004-30.614-25.141 6.598-41.47 30.844-38.121 56.621 3.343 25.774 25.32 45.051 51.312 45.008zm-36.762-66.793c7.211-17.507 25.782-27.48 44.356-23.824s31.98 19.926 32.02 38.856c.038 18.933-13.302 35.254-31.864 38.984-18.559 3.73-37.172-6.168-44.45-23.645a39.418 39.418 0 01-.062-30.37zm213.59 162.567a5.998 5.998 0 00-1.41 10.37 6 6 0 006.02.708l48.199-20.078c13.375 23.926 43.082 33.273 67.742 21.312 24.664-11.96 35.719-41.078 25.21-66.39-10.507-25.313-38.933-38.043-64.812-29.024-25.882 9.02-40.242 36.66-32.738 63.02zm82.633-70.91c20.23-8.43 43.465 1.14 51.89 21.37 8.43 20.231-1.14 43.466-21.37 51.891-20.231 8.43-43.465-1.14-51.891-21.37a39.423 39.423 0 0121.371-51.89zM150.398 292.523a5.998 5.998 0 001.41-10.37 6 6 0 00-6.019-.708l-48.21 20.082c-13.388-23.879-43.075-33.175-67.696-21.195C5.266 292.309-5.738 321.406 4.789 346.68c10.527 25.27 38.934 37.949 64.773 28.91 25.844-9.04 40.153-36.66 32.63-62.985zm-82.632 70.91c-20.23 8.43-43.465-1.14-51.891-21.37-8.43-20.231 1.14-43.465 21.371-51.891 20.23-8.43 43.465 1.14 51.89 21.371a39.423 39.423 0 01-21.371 51.89zm0 0" fill="#0635c9"/><path d="M336.988 256.195a24.985 24.985 0 00-29.699 8.352l-45.113-18.578 45.039-18.762c7.531 10.148 21.453 13.078 32.437 6.824 10.985-6.25 15.575-19.715 10.7-31.375-4.88-11.66-17.692-17.844-29.856-14.41-12.16 3.43-19.851 15.402-17.914 27.89l-45.02 18.755 18.57-45.086c1.227.187 2.47.28 3.712.28 12.379.048 22.953-8.917 24.937-21.136s-5.207-24.066-16.965-27.941c-11.757-3.875-24.586 1.375-30.257 12.379-5.668 11.004-2.497 24.496 7.484 31.82l-18.578 45.113-18.762-45.039c10.106-7.515 13.016-21.39 6.781-32.336-6.234-10.945-19.656-15.515-31.277-10.652-11.621 4.86-17.785 17.629-14.367 29.754 3.418 12.121 15.344 19.789 27.793 17.867l18.754 45.02-45.086-18.57c1.941-12.598-5.832-24.665-18.11-28.102-12.277-3.442-25.187 2.832-30.074 14.605-4.887 11.778-.207 25.344 10.895 31.61 11.105 6.261 25.136 3.246 32.687-7.028l45.113 18.582-45.039 18.762c-7.53-10.148-21.453-13.078-32.437-6.828-10.984 6.25-15.574 19.719-10.7 31.375 4.88 11.66 17.692 17.847 29.852 14.414 12.164-3.434 19.856-15.402 17.918-27.89l45.02-18.755-18.57 45.086c-12.602-1.941-24.669 5.832-28.106 18.11-3.438 12.277 2.832 25.187 14.605 30.074 11.778 4.887 25.348.207 31.61-10.895 6.262-11.105 3.246-25.136-7.028-32.687l18.583-45.113 18.761 45.039c-10.148 7.53-13.078 21.453-6.828 32.437 6.254 10.985 19.719 15.574 31.379 10.7 11.656-4.88 17.844-17.692 14.41-29.856-3.43-12.16-15.402-19.852-27.89-17.914l-18.754-45.02 45.086 18.57c-1.93 12.9 6.367 25.122 19.07 28.09 12.703 2.965 25.555-4.32 29.535-16.742 3.984-12.422-2.238-25.82-14.3-30.793zm-21.722-48.828a13.04 13.04 0 0114.57-7.828 13.036 13.036 0 01.05 25.57 13.032 13.032 0 01-14.597-7.765 12.945 12.945 0 01-.027-9.98zm-47.48-47.293c2.741-6.656 10.359-9.832 17.015-7.09s9.832 10.36 7.09 17.02c-2.743 6.656-10.36 9.828-17.016 7.086-6.652-2.746-9.824-10.36-7.094-17.02zm-59.927 17.153a13.034 13.034 0 01-7.824-14.57c1.2-6.102 6.543-10.509 12.762-10.52s11.582 4.37 12.808 10.468a13.042 13.042 0 01-7.77 14.602 12.963 12.963 0 01-9.98.016zm-47.289 47.48c-6.656-2.742-9.832-10.36-7.09-17.016 2.743-6.656 10.36-9.832 17.016-7.09 6.656 2.743 9.832 10.36 7.09 17.016-2.75 6.653-10.363 9.824-17.023 7.086zm17.149 59.926a13.031 13.031 0 01-14.57 7.824 13.03 13.03 0 01-10.516-12.762 13.026 13.026 0 0110.465-12.804 13.03 13.03 0 0114.601 7.765 12.961 12.961 0 01.016 9.973zm47.484 47.289c-2.742 6.656-10.36 9.832-17.015 7.09-6.657-2.742-9.833-10.36-7.09-17.016 2.742-6.656 10.359-9.828 17.015-7.09 6.645 2.754 9.813 10.36 7.082 17.016zm59.922-17.149c6.152 2.551 9.367 9.356 7.43 15.727a12.95 12.95 0 01-14.922 8.938 12.946 12.946 0 01-10.36-13.973 12.949 12.949 0 0112.891-11.68c1.7 0 3.387.332 4.957.985zm54.383-30.464c-2.742 6.656-10.363 9.828-17.02 7.09-6.656-2.743-9.828-10.364-7.086-17.02 2.739-6.656 10.36-9.828 17.016-7.086a12.944 12.944 0 017.082 17.012zm0 0" fill="#1ae5be"/></svg>