<svg height="512" width="512" xmlns="http://www.w3.org/2000/svg"><path d="M64 160h56v16H64zm82.642-73.319L101.063 48H64V32h40a8 8 0 015.176 1.9l47.818 40.581zm-21.168 42.325L78.594 112H48V96h32a8 8 0 012.728.479l48.2 17.486zM392 160h56v16h-56zm-26.642-73.319l-10.352-12.2L402.824 33.9A8 8 0 01408 32h40v16h-37.063zm21.168 42.325l-5.456-15.041 48.2-17.486A8 8 0 01432 96h32v16h-30.594z" fill="#3f484f"/><circle cx="56" cy="40" fill="#ffa511" r="16"/><circle cx="40" cy="104" fill="#ffa511" r="16"/><circle cx="56" cy="168" fill="#ffa511" r="16"/><circle cx="456" cy="40" fill="#ffa511" r="16"/><circle cx="472" cy="104" fill="#ffa511" r="16"/><circle cx="456" cy="168" fill="#ffa511" r="16"/><path d="M462.575 153.425a15.979 15.979 0 01-21.15 21.15 15.993 15.993 0 1021.15-21.15zm16-64a15.979 15.979 0 01-21.15 21.15 15.993 15.993 0 1021.15-21.15zm-16-64a15.979 15.979 0 01-21.15 21.15 15.993 15.993 0 1021.15-21.15zm-416 64a15.979 15.979 0 01-21.15 21.15 15.993 15.993 0 1021.15-21.15zm16-64a15.979 15.979 0 01-21.15 21.15 15.993 15.993 0 1021.15-21.15zm0 128a15.979 15.979 0 01-21.15 21.15 15.993 15.993 0 1021.15-21.15z" fill="#f08015"/><path d="M400 168A144 144 0 00257.787 24.011c-78.979-.961-144.473 62.6-145.767 141.573A145.065 145.065 0 00114 192l142 8 142-8a144.911 144.911 0 002-24z" fill="#26bfb0"/><path d="M257.787 24.011c-4.626-.056-9.2.117-13.728.494A144.072 144.072 0 01374 192l2 8 22-8A144.067 144.067 0 00257.787 24.011z" fill="#1c998a"/><path d="M208 456l32 32h32l32-32-48-8z" fill="#b7b2a5"/><path d="M208 456l.2.2a175 175 0 0174.949 20.652L304 456l-48-8z" fill="#999488"/><path d="M208 424v32h96v-32l-48-8z" fill="#878784"/><path d="M301.205 456H304v-40h-96v8.189A175.074 175.074 0 01301.205 456z" fill="#70706f"/><path d="M208 384h96v40h-96z" fill="#b7b2a5"/><path d="M301.205 424H304v-40h-96v8.189A175.074 175.074 0 01301.205 424z" fill="#999488"/><path d="M343.181 128.819a31.993 31.993 0 00-39.773-23.643 39.991 39.991 0 00-73.2-14.569A40 40 0 00176 128a32 32 0 000 64h160a32 32 0 007.181-63.181z" fill="#ff5086"/><path d="M216 152v-16a24.027 24.027 0 0024-24h16a40.045 40.045 0 01-40 40zm104 16a40.045 40.045 0 01-40-40h16a24.027 24.027 0 0024 24zm-144 32v-16a16.019 16.019 0 0016-16h16a32.036 32.036 0 01-32 32z" fill="#d30275"/><path d="M336 200H176a40 40 0 01-7.445-79.306 48.024 48.024 0 0158.551-39.4A48.007 48.007 0 01309.3 96.092Q310.647 96 312 96a39.766 39.766 0 0137.618 26.382A40 40 0 01336 200zM216 96a32.036 32.036 0 00-32 32 8 8 0 01-8 8 24 24 0 000 48h160a24 24 0 005.392-47.383 8 8 0 01-6.008-6.009 24 24 0 00-29.832-17.725 8 8 0 01-10.028-6.352 31.991 31.991 0 00-58.56-11.638 8 8 0 01-9.6 3.191A31.883 31.883 0 00216 96z" fill="#d30275"/><path d="M343.181 128.819a32.042 32.042 0 00-23.7-23.933 271.431 271.431 0 01-157.492 83.886A31.86 31.86 0 00176 192h160a32 32 0 007.181-63.181z" fill="#e03f81"/><path d="M349.618 122.382a39.7 39.7 0 00-24.2-24.095q-6.158 7.089-12.789 13.74a23.849 23.849 0 0122.752 18.581 8 8 0 006.008 6.009A24 24 0 01336 184H185.669a270.934 270.934 0 01-35.684 6.347A39.819 39.819 0 00176 200h160a40 40 0 0013.618-77.618z" fill="#b2046b"/><path d="M296 128h-.749q-6.691 5.643-13.74 10.861A40.064 40.064 0 00320 168v-16a24.027 24.027 0 01-24-24zm-120 58.217V200a32.049 32.049 0 0030.4-22.019 269.856 269.856 0 01-30.4 8.236zM288 200a40.045 40.045 0 01-40-40h16a24.027 24.027 0 0024 24z" fill="#b2046b"/><path d="M114 192a143.715 143.715 0 0044.174 81.66A106.665 106.665 0 01192 352v24a16 16 0 0016 16h96a16 16 0 0016-16v-24.333a107.962 107.962 0 0134.507-78.643A143.694 143.694 0 00398 192z" fill="#ededeb"/><path d="M374.416 192a143.8 143.8 0 01-41.907 73.024A107.962 107.962 0 00298 343.667V368a16 16 0 01-16 16h-87.842A15.98 15.98 0 00208 392h96a16 16 0 0016-16v-24.333a107.962 107.962 0 0134.507-78.643A143.694 143.694 0 00398 192z" fill="#cececc"/></svg>