<svg height="472pt" viewBox="0 0 472 472" width="472pt" xmlns="http://www.w3.org/2000/svg"><path d="M440 288a8 8 0 01-8-8v-16a8 8 0 00-8-8h-52c-13.254 0-24-10.746-24-24s10.746-24 24-24h52a8 8 0 000-16h-16c-13.254 0-24-10.746-24-24v-16a8 8 0 0116 0v16a8 8 0 008 8h16c13.254 0 24 10.746 24 24s-10.746 24-24 24h-52a8 8 0 000 16h52c13.254 0 24 10.746 24 24v16a8 8 0 01-8 8zM56 208a8 8 0 01-8-8v-96a8 8 0 00-8-8H24C10.746 96 0 85.254 0 72s10.746-24 24-24h216c13.254 0 24 10.746 24 24v40a8 8 0 0016 0V24c0-13.254 10.746-24 24-24h72c13.254 0 24 10.746 24 24v16a8 8 0 01-16 0V24a8 8 0 00-8-8h-72a8 8 0 00-8 8v88c0 13.254-10.746 24-24 24s-24-10.746-24-24V72a8 8 0 00-8-8H24a8 8 0 000 16h16c13.254 0 24 10.746 24 24v96a8 8 0 01-8 8zm0 0" fill="#006"/><path d="M216 200v96a8 8 0 01-8 8H96a8 8 0 01-8-8v-96H40c-17.672 0-32 14.328-32 32v120c0 17.672 14.328 32 32 32h176c17.672 0 32-14.328 32-32V232c0-17.672-14.328-32-32-32zm0 0" fill="#20b2ad"/><path d="M80 320h112a8 8 0 008-8v-8H96a8 8 0 01-8-8v-96H72v112a8 8 0 008 8zm0 0" fill="#1b8984"/><path d="M328 408h128c8.836 0 16 7.164 16 16v32c0 8.836-7.164 16-16 16H328c-8.836 0-16-7.164-16-16v-32c0-8.836 7.164-16 16-16zm0 0" fill="#20b2ad"/><path d="M424 408h32c8.836 0 16 7.164 16 16v32c0 8.836-7.164 16-16 16h-32zm0 0" fill="#ff7f00"/><path d="M328 344h128c8.836 0 16 7.164 16 16v32c0 8.836-7.164 16-16 16H328c-8.836 0-16-7.164-16-16v-32c0-8.836 7.164-16 16-16zm0 0" fill="#20b2ad"/><path d="M424 344h32c8.836 0 16 7.164 16 16v32c0 8.836-7.164 16-16 16h-32zm0 0" fill="#ff7f00"/><path d="M328 280h128c8.836 0 16 7.164 16 16v32c0 8.836-7.164 16-16 16H328c-8.836 0-16-7.164-16-16v-32c0-8.836 7.164-16 16-16zm0 0" fill="#20b2ad"/><path d="M408 280h48c8.836 0 16 7.164 16 16v32c0 8.836-7.164 16-16 16h-48zm0 0" fill="#ff7f00"/><path d="M152 384h-48l-16 40h80zm0 0" fill="purple"/><path d="M96 136h112a8 8 0 018 8v152a8 8 0 01-8 8H96a8 8 0 01-8-8V144a8 8 0 018-8zm0 0" fill="gold"/><path d="M136 136v56l24-8 24 8v-56zm0 0" fill="#e5c200"/><path d="M192 176l-24-8-24 8v-72h48zm0 0" fill="#ff7f00"/><path d="M8 336h240v16c0 17.672-14.328 32-32 32H40c-17.672 0-32-14.328-32-32zm0 0" fill="#9c02a0"/><path d="M448 96c0 30.93-25.07 56-56 56s-56-25.07-56-56 25.07-56 56-56 56 25.07 56 56zm0 0" fill="#20b2ad"/><path d="M376 80a55.792 55.792 0 0116.8-39.96h-.8c-25.273.003-47.414 16.937-54.035 41.327-6.621 24.39 3.914 50.195 25.715 62.98 21.804 12.786 49.468 9.38 67.52-8.308-30.63-.437-55.223-25.406-55.2-56.039zm0 0" fill="#1b8984"/><path d="M336 96a55.75 55.75 0 0015.137 38.207L376 120V96l-30.77-30.77A55.707 55.707 0 00336 96zm0 0" fill="purple"/><path d="M420.32 47.742L400 64l8 24v24l29.344 16.8a55.824 55.824 0 009.48-44.308 55.824 55.824 0 00-26.504-36.75zm0 0" fill="#9c02a0"/><path d="M392 448h-16a8 8 0 010-16h16a8 8 0 010 16zm0-64h-16a8 8 0 010-16h16a8 8 0 010 16zm-32-64h-16a8 8 0 010-16h16a8 8 0 010 16zm88-8a8 8 0 11-16 0 8 8 0 0116 0zm-96 64a8 8 0 11-16 0 8 8 0 0116 0zm0 64a8 8 0 11-16 0 8 8 0 0116 0zm0 0" fill="#006"/><path d="M200 432H56a8 8 0 010-16h144a8 8 0 010 16zm0 0" fill="purple"/><path d="M176 232h-40a8 8 0 010-16h40a8 8 0 010 16zm0 32h-48a8 8 0 010-16h48a8 8 0 010 16zm0 0" fill="#006"/><path d="M328 424h96v-16h-96c-8.836 0-16 7.164-16 16v16c0-8.836 7.164-16 16-16zm0 0" fill="#1b8984"/><path d="M456 408h-32v16h32c8.836 0 16 7.164 16 16v-16c0-8.836-7.164-16-16-16zm0 0" fill="#db6a03"/><path d="M328 360h96v-16h-96c-8.836 0-16 7.164-16 16v16c0-8.836 7.164-16 16-16zm0 0" fill="#1b8984"/><path d="M456 344h-32v16h32c8.836 0 16 7.164 16 16v-16c0-8.836-7.164-16-16-16zm0 0" fill="#db6a03"/></svg>