<svg height="512" width="512" xmlns="http://www.w3.org/2000/svg"><g fill="#3f484f"><path d="M64 248h48v16H64zm104-80h-16v-53.1L116.253 72H64V56h56a8 8 0 016.146 2.879l40 48A8 8 0 01168 112z"/><path d="M136 168h-16v-24.687L112.687 136H80v-16h36a8 8 0 015.657 2.343l12 12A8 8 0 01136 140zm-26.343 64.972L76.687 200H48v-16h32a8 8 0 015.657 2.343l24 24zM88 328H48v-16h36.687l37.656-37.657 11.314 11.314-40 40A8 8 0 0188 328zm128-176h-16v-36.687l-13.657-13.656A8 8 0 01184 96V48h16v44.687l13.657 13.656A8 8 0 01216 112zm32-88h16v56h-16zm64 88h-16v-32a8 8 0 012.343-5.657L312 100.687V48h16v56a8 8 0 01-2.343 5.657L312 123.313zm48 16h-16v-56a8 8 0 011.854-5.121l40-48A8 8 0 01392 56h56v16h-52.253L360 114.9z"/><path d="M392 168h-16v-28a8 8 0 012.343-5.657l12-12A8 8 0 01396 120h36v16h-32.687L392 143.313zM88 388H64v-16h20.5l45.625-49.426 11.756 10.852-48 52A8 8 0 0188 388zm-8 60H48v-16h28.32l45.606-53.206A8 8 0 01128 376h56v16h-52.32l-45.606 53.206A8 8 0 0180 448zm80 16h-16v-32a8 8 0 012.343-5.657l24-24 11.314 11.314L160 435.313zm240-216h48v16h-48zm2.97-15.655l-.627-22 24-24A8 8 0 01432 184h32v16h-28.687zM464 328h-40a8 8 0 01-5.657-2.343l-40-40 11.314-11.314L427.313 312H464zm-16 60h-24a8 8 0 01-5.878-2.574l-48-52 11.756-10.852L427.5 372H448zm16 60h-32a8 8 0 01-6.074-2.794L380.32 392H328v-16h56a8 8 0 016.074 2.794L435.68 432H464zm-96 16h-16v-28.687l-21.657-21.656 11.314-11.314 24 24A8 8 0 01368 432z"/></g><circle cx="72" cy="128" fill="#26bfb0" r="16"/><circle cx="40" cy="192" fill="#26bfb0" r="16"/><circle cx="56" cy="256" fill="#26bfb0" r="16"/><circle cx="40" cy="320" fill="#26bfb0" r="16"/><circle cx="192" cy="40" fill="#26bfb0" r="16"/><circle cx="256" cy="56" fill="#26bfb0" r="16"/><circle cx="320" cy="40" fill="#26bfb0" r="16"/><circle cx="440" cy="128" fill="#26bfb0" r="16"/><circle cx="456" cy="64" fill="#26bfb0" r="16"/><circle cx="56" cy="380" fill="#26bfb0" r="16"/><circle cx="40" cy="440" fill="#26bfb0" r="16"/><circle cx="152" cy="472" fill="#26bfb0" r="16"/><circle cx="472" cy="192" fill="#26bfb0" r="16"/><circle cx="456" cy="256" fill="#26bfb0" r="16"/><circle cx="472" cy="320" fill="#26bfb0" r="16"/><circle cx="456" cy="380" fill="#26bfb0" r="16"/><circle cx="472" cy="440" fill="#26bfb0" r="16"/><circle cx="360" cy="472" fill="#26bfb0" r="16"/><path d="M408 168a212.451 212.451 0 01-150.225-62.225L256 104l-1.775 1.775A212.451 212.451 0 01104 168v31.826A349.17 349.17 0 00256 488a349.17 349.17 0 00152-288.174z" fill="#ffa511"/><path d="M156.5 383.943A348.934 348.934 0 00256 488a349.182 349.182 0 00147.3-231.082 311.528 311.528 0 01-246.8 127.025z" fill="#f08015"/><path d="M144 256l2.745-2.745A154.51 154.51 0 01256 208a154.51 154.51 0 01109.255 45.255L368 256l-2.745 2.745A154.51 154.51 0 01256 304a154.51 154.51 0 01-109.255-45.255z" fill="#ededeb"/><path d="M331.037 227.455A231.036 231.036 0 01184 280c-3.729 0-7.435-.1-11.121-.271A154.5 154.5 0 00256 304a154.51 154.51 0 00109.255-45.255L368 256l-2.745-2.745a154.441 154.441 0 00-34.218-25.8z" fill="#cececc"/><circle cx="256" cy="256" fill="#b7b2a5" r="48"/><path d="M304 256a48.24 48.24 0 00-.838-8.908 230.506 230.506 0 01-89.747 31.049A48 48 0 00304 256z" fill="#999488"/><circle cx="256" cy="256" fill="#3f484f" r="16"/><path d="M249.511 270.617a15.971 15.971 0 0020.638-7.157q-10.096 4.04-20.638 7.157z" fill="#2a3135"/><circle cx="56" cy="64" fill="#26bfb0" r="16"/><path d="M62.575 49.425a15.979 15.979 0 01-21.15 21.15 15.993 15.993 0 1021.15-21.15zm16 64a15.979 15.979 0 01-21.15 21.15 15.993 15.993 0 1021.15-21.15zm-32 64a15.979 15.979 0 01-21.15 21.15 15.993 15.993 0 1021.15-21.15zm16 64a15.979 15.979 0 01-21.15 21.15 15.993 15.993 0 1021.15-21.15zm-16 64a15.979 15.979 0 01-21.15 21.15 15.993 15.993 0 1021.15-21.15zm16 60a15.979 15.979 0 01-21.15 21.15 15.993 15.993 0 1021.15-21.15zm-16 60a15.979 15.979 0 01-21.15 21.15 15.993 15.993 0 1021.15-21.15zm112 32a15.979 15.979 0 01-21.15 21.15 15.993 15.993 0 1021.15-21.15zm208 0a15.979 15.979 0 01-21.15 21.15 15.993 15.993 0 1021.15-21.15zm112-32a15.979 15.979 0 01-21.15 21.15 15.993 15.993 0 1021.15-21.15zm-16-60a15.979 15.979 0 01-21.15 21.15 15.993 15.993 0 1021.15-21.15zm16-60a15.979 15.979 0 01-21.15 21.15 15.993 15.993 0 1021.15-21.15zm-16-64a15.979 15.979 0 01-21.15 21.15 15.993 15.993 0 1021.15-21.15zm16-64a15.979 15.979 0 01-21.15 21.15 15.993 15.993 0 1021.15-21.15zm-32-64a15.979 15.979 0 01-21.15 21.15 15.993 15.993 0 1021.15-21.15zm16-64a15.979 15.979 0 01-21.15 21.15 15.993 15.993 0 1021.15-21.15zm-136-24a15.979 15.979 0 01-21.15 21.15 15.993 15.993 0 1021.15-21.15zm-64 16a15.979 15.979 0 01-21.15 21.15 15.993 15.993 0 1021.15-21.15zm-64-16a15.979 15.979 0 01-21.15 21.15 15.993 15.993 0 1021.15-21.15z" fill="#1c998a"/></svg>