<svg height="512" width="512" xmlns="http://www.w3.org/2000/svg"><path d="M248 24h176l64 64v256H248z" fill="#ededeb"/><path d="M248 328v16h240V142.69C460.229 249.3 363.309 328 248 328z" fill="#cececc"/><path d="M16 216a64 64 0 0164 64v22.956L104 360H88v24l-16 8 16 8v16a16 16 0 01-16 16H16z" fill="#fccca7"/><path d="M424 88h64l-64-64z" fill="#b7b2a5"/><path d="M134.946 451.969l-13.892-7.938a105.286 105.286 0 000-104.062l13.892-7.938a121.354 121.354 0 010 119.938z" fill="#e0300e"/><path d="M166.993 467.885l-13.986-7.77a140.26 140.26 0 000-136.23l13.986-7.77a156.255 156.255 0 010 151.77z" fill="#e0300e"/><path d="M199.023 483.831l-14.046-7.662a175.068 175.068 0 000-168.338l14.046-7.662a191.776 191.776 0 010 183.662z" fill="#e0300e"/><path d="M272 48h128v16H272zm0 32h128v16H272zm0 32h192v16H272zm0 32h192v16H272z" fill="#3098c6"/><path d="M87.124 319.888A144.034 144.034 0 0116 428.732V432h56a16 16 0 0016-16v-16l-16-8 16-8v-24h16z" fill="#e5b391"/><circle cx="368" cy="392" fill="#26bfb0" r="96"/><path d="M405.774 303.722a96.024 96.024 0 01-115.548 144.556 96.006 96.006 0 10115.548-144.556z" fill="#1c998a"/><path d="M360 416h16v32h-16z" fill="#3f484f"/><path d="M368 424a48.054 48.054 0 01-48-48h16a32 32 0 0064 0h16a48.054 48.054 0 01-48 48z" fill="#ededeb"/><path d="M328 440h80v16h-80z" fill="#9e6e4d"/><path d="M328 456h80v-16h-26.926A95.54 95.54 0 01328 456z" fill="#7e5138"/><rect fill="#ededeb" height="64" rx="16" width="32" x="352" y="328"/><path d="M368 328a15.99 15.99 0 00-4 .524A15.992 15.992 0 01376 344v32a15.992 15.992 0 01-12 15.476A15.946 15.946 0 00384 376v-32a16 16 0 00-16-16z" fill="#cececc"/><path d="M352 360h32v16a16 16 0 01-16 16 16 16 0 01-16-16z" fill="#3f484f"/><path d="M376 360v8a15.979 15.979 0 01-22.575 14.575A15.993 15.993 0 00384 376v-16z" fill="#2a3135"/><path d="M352 264h32v-32h32l-48-48-48 48h32z" fill="#ffa511"/><path d="M391.426 207.426A48.028 48.028 0 01352 247.324V264h32v-32h32z" fill="#f08015"/></svg>