<svg xmlns="http://www.w3.org/2000/svg" width="55" height="55" viewBox="0 0 172 172"><g fill="none" stroke-miterlimit="10" font-family="none" font-weight="none" font-size="none" text-anchor="none" style="mix-blend-mode:normal"><path d="M0 172V0h172v172z"/><path d="M61.92 6.88c-9.484 0-17.2 7.716-17.2 17.2 0 9.484 7.716 17.2 17.2 17.2 1.4 0 2.74-.214 4.045-.53l2.869 6.1C56.498 53.996 48.16 67.307 48.16 82.56c0 3.937.592 7.732 1.626 11.341l-11.254 3.48C35.47 92.62 30.15 89.44 24.08 89.44c-9.484 0-17.2 7.716-17.2 17.2 0 9.484 7.716 17.2 17.2 17.2 9.484 0 17.2-7.716 17.2-17.2 0-.964-.095-1.901-.249-2.822l11.22-3.467c5.254 10.935 15.158 19.194 27.158 22.206l-1.028 8.197c-9.14.391-16.461 7.932-16.461 17.166 0 9.484 7.716 17.2 17.2 17.2 9.484 0 17.2-7.716 17.2-17.2 0-7.345-4.647-13.583-11.14-16.044l1.028-8.204c1.07.084 2.14.168 3.232.168 11.532 0 21.958-4.767 29.455-12.416l13.847 11.375c-1.249 2.382-2.022 5.05-2.022 7.921 0 9.484 7.716 17.2 17.2 17.2 9.484 0 17.2-7.716 17.2-17.2 0-9.484-7.716-17.2-17.2-17.2-4.123 0-7.858 1.522-10.824 3.95l-13.814-11.34c4.673-6.69 7.438-14.809 7.438-23.57 0-10.145-3.696-19.431-9.79-26.626l10.643-10.643a17.076 17.076 0 009.467 2.869c9.484 0 17.2-7.716 17.2-17.2 0-9.484-7.716-17.2-17.2-17.2-9.484 0-17.2 7.716-17.2 17.2 0 3.5 1.066 6.747 2.869 9.467l-10.643 10.642c-7.195-6.093-16.481-9.789-26.626-9.789-5.063 0-9.892.965-14.378 2.64L72.18 37.8c4.186-3.14 6.94-8.096 6.94-13.72 0-9.484-7.716-17.2-17.2-17.2zm27.52 51.6c3.185 0 5.795.87 6.665 2.614 5.267.66 7.06 5.23 7.095 9.426.028 3.192-.234 5.986-.86 7.74.578.289 1.149 1.7.86 3.44-.578 3.192-2.57 4.3-3.44 4.3-.289 2.903-2.28 7.159-3.44 7.74v6.02c1.858 4.462 10.784 4.43 16.226 8.23-6.11 5.553-14.2 8.97-23.106 8.97-8.906 0-16.996-3.417-23.106-8.97 5.442-3.8 14.368-3.768 16.226-8.23v-6.02c-1.16-.581-3.151-4.837-3.44-7.74-.87 0-3.151-1.108-3.44-4.3-.289-1.74.282-3.151.86-3.44-.691-2.566-.843-5.036-.86-7.31-.052-7.238 4.269-12.47 13.76-12.47z" fill="#1d6da1"/></g></svg>