<svg xmlns="http://www.w3.org/2000/svg" width="55" height="55" viewBox="0 0 172 172"><g fill="none" stroke-miterlimit="10" font-family="none" font-weight="none" font-size="none" text-anchor="none" style="mix-blend-mode:normal"><path d="M0 172V0h172v172z"/><path d="M10.32 10.32C4.636 10.32 0 14.956 0 20.64v10.32h172V20.64c0-5.684-4.636-10.32-10.32-10.32zM0 37.84v123.84h172V37.84zM99.76 51.6c.443 0 .847.04 1.29.215 1.76.726 2.66 2.755 1.935 4.515l-30.96 75.68a3.513 3.513 0 01-3.225 2.15c-.43 0-.86-.04-1.29-.215-1.76-.726-2.66-2.755-1.935-4.515l30.96-75.68c.537-1.317 1.881-2.137 3.225-2.15zM54.61 72.24a3.516 3.516 0 013.44 1.72c.94 1.653.363 3.79-1.29 4.73L37.947 89.44l18.813 10.75c1.653.94 2.23 3.077 1.29 4.73-.632 1.115-1.814 1.72-3.01 1.72-.578 0-1.183-.12-1.72-.43L29.24 92.45a3.463 3.463 0 01-1.72-3.01c0-1.236.645-2.392 1.72-3.01l24.08-13.76a3.57 3.57 0 011.29-.43zm62.78 0a3.33 3.33 0 011.29.43l24.08 13.76a3.463 3.463 0 011.72 3.01 3.463 3.463 0 01-1.72 3.01l-24.08 13.76c-.538.31-1.142.43-1.72.43-1.196 0-2.378-.605-3.01-1.72-.94-1.653-.363-3.79 1.29-4.73l18.813-10.75-18.813-10.75c-1.653-.94-2.23-3.077-1.29-4.73.699-1.236 2.11-1.881 3.44-1.72z" fill="#1d6da1"/></g></svg>