<svg xmlns="http://www.w3.org/2000/svg" width="55" height="55" viewBox="0 0 172 172"><g fill="none" stroke-miterlimit="10" font-family="none" font-weight="none" font-size="none" text-anchor="none" style="mix-blend-mode:normal"><path d="M0 172V0h172v172z"/><path d="M81.162 6.88a3.453 3.453 0 00-3.386 2.822l-1.827 9.997a32.191 32.191 0 00-4.999 2.03l-8.21-5.926a3.413 3.413 0 00-4.421.349l-7.35 7.243a3.427 3.427 0 00-.404 4.394l5.765 8.344a34.358 34.358 0 00-2.096 4.986l-9.998 1.612a3.445 3.445 0 00-2.889 3.373l-.067 10.32a3.433 3.433 0 002.822 3.4l10.024 1.827a33.11 33.11 0 002.03 4.959l-5.953 8.25a3.445 3.445 0 00.335 4.435l7.257 7.337a3.427 3.427 0 004.394.403l8.439-5.819a34.459 34.459 0 004.958 2.056l1.707 10.119a3.454 3.454 0 003.372 2.875l10.32.054H91c1.68 0 3.117-1.21 3.4-2.862l1.706-10.105c1.68-.538 3.32-1.21 4.891-2.016l8.399 5.966a3.443 3.443 0 004.407-.349l7.337-7.256a3.449 3.449 0 00.39-4.435l-5.953-8.358a32.328 32.328 0 002.056-4.878l10.159-1.72a3.454 3.454 0 002.875-3.372l.054-10.32a3.423 3.423 0 00-2.862-3.4l-10.078-1.707a33.41 33.41 0 00-2.002-4.945l5.925-8.358a3.442 3.442 0 00-.349-4.407l-7.243-7.337a3.452 3.452 0 00-4.448-.39l-8.264 5.886a31.565 31.565 0 00-4.918-2.083L94.87 9.836a3.445 3.445 0 00-3.373-2.889l-10.32-.067zm4.704 31.067c3.56 0 7.121 1.358 9.822 4.099 5.362 5.429 5.322 14.177-.107 19.538a13.748 13.748 0 01-9.702 3.991c-3.574 0-7.135-1.37-9.836-4.098-5.362-5.43-5.308-14.177.12-19.552a13.734 13.734 0 019.703-3.977zM49.61 96.32c-7.995 0-11.771 1.532-15.762 3.158l-1.814.725c-8.304 3.225-22.602 9.958-23.207 10.253a3.433 3.433 0 00-1.652 4.569c.82 1.72 16.125 35.677 16.917 36.913a3.431 3.431 0 004.744 1.034l8.492-5.428c3.548-2.23 4.932-2.809 10.025-.215l6.853 3.493c7.753 3.951 18.382 9.366 21.742 10.965 5.052 2.42 9.258 3.333 12.86 3.333 6.234 0 10.628-2.728 14.445-5.08.82-.51 1.64-1.02 2.472-1.49 5.832-3.32 46.601-29.94 50.875-32.91 5.012-3.48 7.847-7.162 8.411-10.924.39-2.567-.013-5.093-3.01-7.109-3.923-2.633-10.266 1.33-10.266 1.33l-31.981 20.99c-1.72 5.792-7.108 11.113-18.275 11.113H83.42c-7.162 0-16.77-2.096-21.057-3.118-.094-.026-1.316-.322-1.316-.322a3.447 3.447 0 01-2.567-3.333 3.447 3.447 0 013.44-3.44c.336 0 .954.135.954.135 3.144.78 13.424 3.198 20.546 3.198h18.06c7.901 0 12.04-3.225 12.04-8.6 0-4.932-3.924-8.6-12.04-8.6-6.705 0-14.62-1.236-22.306-3.32-5.08-1.37-9.312-12.053-18.544-15.788-.766-.31-4.26-1.532-11.019-1.532zm69.284.067c-4.367 0-8.761 1.68-11.22 3.118-.538.336-9.42 5.858-15.95 9.93 3.036.39 6.234.645 9.755.645 2.096 0 3.924.255 5.657.632L125.4 99.384c.403-.269.954-.565 1.572-.874-2.016-1.182-4.676-2.123-8.076-2.123zm20.452 4.676c-.51 0-1.048.027-1.626.081-2.19.202-4.703 1.626-4.703 1.626l-18.275 11.328c2.62 2.056 4.286 4.703 5.066 7.552l20.868-13.68 5.953-3.91a9.376 9.376 0 00-1.048-1.008.863.863 0 00-.175-.134 7.918 7.918 0 00-1.317-.847 6.69 6.69 0 00-.295-.12 8.456 8.456 0 00-1.734-.592c-.107-.027-.228-.04-.336-.067a12.201 12.201 0 00-2.338-.229h-.04z" fill="#1d6da1"/></g></svg>