<svg xmlns="http://www.w3.org/2000/svg" width="55" height="55" viewBox="0 0 172 172"><g fill="none" stroke-miterlimit="10" font-family="none" font-weight="none" font-size="none" text-anchor="none" style="mix-blend-mode:normal"><path d="M0 172V0h172v172z"/><path d="M58.48 0a3.447 3.447 0 00-3.44 3.44v27.52a3.447 3.447 0 003.44 3.44h55.04a3.438 3.438 0 003.44-3.44V3.44A3.438 3.438 0 00113.52 0zM27.52 6.88c-5.684 0-10.32 4.636-10.32 10.32v144.48c0 5.684 4.636 10.32 10.32 10.32h116.96c5.684 0 10.32-4.636 10.32-10.32V17.2c0-5.684-4.636-10.32-10.32-10.32h-20.64v13.76h17.2v137.6H30.96V20.64h17.2V6.88zm10.32 20.64v123.84h96.32V27.52h-10.32v3.44c0 5.684-4.636 10.32-10.32 10.32H58.48c-5.684 0-10.32-4.636-10.32-10.32v-3.44zm74.712 36.55l5.698 3.655-34.292 53.105-26.875-24.295 4.622-5.053 20.855 18.813z" fill="#1d6da1"/></g></svg>