<svg xmlns="http://www.w3.org/2000/svg" width="55" height="55" viewBox="0 0 172 172"><g fill="none" stroke-miterlimit="10" font-family="none" font-weight="none" font-size="none" text-anchor="none" style="mix-blend-mode:normal"><path d="M0 172V0h172v172z"/><path d="M34.185 1.827L1.827 34.185l51.386 51.17 32.25-32.25-4.945-4.945-12.685 12.793-4.945-4.946L75.68 43.324l-5.482-5.483-9.245 9.352-4.945-4.945 9.352-9.245-5.482-5.482-12.685 12.792-4.945-4.944L55.04 22.681 49.558 17.2l-9.245 9.352-4.945-4.945 9.352-9.245zM148.35 6.88c-4.287 0-8.56 1.68-11.825 4.945l-6.128 6.02L58.05 90.192l-42.785 42.893a3.394 3.394 0 00-1.397 1.935l-6.88 25.8a3.43 3.43 0 00.9 3.292 3.43 3.43 0 003.292.9l25.8-6.88a3.508 3.508 0 001.505-.967l.215-.107c.161-.162.31-.35.43-.538L154.155 41.602v-.107l2.258-2.257 3.762-3.763c6.53-6.544 6.53-17.12 0-23.65-3.279-3.265-7.538-4.945-11.825-4.945zm0 6.88a9.864 9.864 0 016.987 2.902c3.844 3.844 3.844 10.132 0 13.976l-1.182 1.182-13.975-13.975 1.183-1.182a9.832 9.832 0 016.987-2.903zm-26.552 74.927l-9.246 9.246-2.902-2.903-23.113 23.113 51.278 51.277 32.358-32.357-7.095-7.095-9.245 9.245-4.945-4.838 9.352-9.352-5.482-5.375-12.685 12.685-4.945-4.838 12.792-12.793-5.482-5.374-9.245 9.244-4.945-4.837 9.352-9.352-5.482-5.376-12.685 12.685-4.945-4.837 12.792-12.793zm-102.77 53.858l10.427 10.428-14.297 3.87z" fill="#1d6da1"/></g></svg>