<svg xmlns="http://www.w3.org/2000/svg" viewBox="0 0 468.324 468.324"><path d="M216.193 468.324H54.44a6.244 6.244 0 01-6.244-6.244v-65.552a6.244 6.244 0 016.244-6.244h161.753a6.244 6.244 0 016.244 6.244v65.552a6.245 6.245 0 01-6.244 6.244z" fill="#e56353"/><path d="M246.917 256.528c11.676 11.675 11.801 30.72.312 42.583l-35.062 35.622a24.682 24.682 0 00-9.096 19.138l-3.608 36.402H71.151V288.184l.437.125c.937-7.243 4.059-14.299 9.553-19.918L196.154 151.63c13.487-13.736 35.528-13.861 49.202-.375 13.737 13.487 13.924 35.528.375 49.203L140.882 306.983c-2.346 2.383-1.989 6.303.749 8.223a5.409 5.409 0 006.972-.645l56.48-57.72c11.489-11.865 30.22-11.99 41.834-.313z" fill="#fcd462"/><circle cx="259.941" cy="160.187" r="160.187" fill="#64798a"/><path d="M396.636 160.233c0 75.479-61.212 136.691-136.691 136.691-42.161 0-79.879-19.094-104.911-49.081L353.749 60.79c26.399 24.904 42.887 60.23 42.887 99.443z" fill="#e1e6e9"/><path d="M353.749 60.79L155.034 247.844c-19.863-23.707-31.781-54.249-31.781-87.61 0-75.522 61.169-136.691 136.691-136.691 36.267-.001 69.286 14.138 93.805 37.247z" fill="#ebf0f3"/><path d="M288.059 160.216c9.634-7.331 15.278-18.576 15.278-30.801 0-21.4-17.411-38.81-38.81-38.81h-4.363V74.586h-8.009v16.019h-9.344V74.586h-8.009v16.019h-18.285v16.019h10.276v45.584h-10.276v16.019h10.276v45.584h-10.276v16.019h18.285v16.019h8.009V229.83h9.344v16.019h8.009V229.83h4.363c21.4 0 38.81-17.411 38.81-38.81 0-12.228-5.644-23.472-15.278-30.804zm-23.532 53.594H242.81v-45.584h21.717c12.567 0 22.792 10.225 22.792 22.792 0 12.566-10.226 22.792-22.792 22.792zm0-61.603H242.81v-45.584h21.717c12.567 0 22.792 10.225 22.792 22.792s-10.226 22.792-22.792 22.792z" fill="#64798a"/><circle cx="180.437" cy="429.299" r="22.634" fill="#e1e6e9"/><path d="M246.934 256.507a29.228 29.228 0 00-41.861.33l-55.157 56.346c-2.178 2.225-1.43 5.946 1.44 7.156l51.728 21.809 44.174-43.032c11.466-11.858 11.321-30.932-.324-42.609z" fill="#fcd462"/></svg>