<svg xmlns="http://www.w3.org/2000/svg" viewBox="0 0 468.293 468.293"><path d="M414.71 115.931l23.748-7.728h18.827c6.079 0 11.008-4.928 11.008-11.008 0-6.079-4.928-11.008-11.008-11.008h-18.827l-23.748-7.721h-24.884V53.583l-7.728-23.747V11.008C382.098 4.928 377.17 0 371.091 0s-11.008 4.928-11.008 11.008v18.828l-7.72 23.747v24.885h-53.835V53.583L290.8 29.835V11.008C290.8 4.928 285.872 0 279.793 0s-11.008 4.928-11.008 11.008v18.828l-7.721 23.747v24.885H207.23V53.583l-7.727-23.747V11.008c0-6.08-4.928-11.008-11.008-11.008-6.079 0-11.008 4.928-11.008 11.008v18.828l-7.721 23.747v24.885h-53.835V53.583l-7.727-23.747V11.008C108.204 4.928 103.276 0 97.197 0S86.189 4.928 86.189 11.008v18.828l-7.721 23.747v24.885H53.583l-23.748 7.721H11.008C4.929 86.189 0 91.117 0 97.197c0 6.079 4.928 11.008 11.008 11.008h18.827l23.748 7.728h24.885v53.835H53.583l-23.748 7.721H11.008C4.929 177.489 0 182.417 0 188.497c0 6.079 4.928 11.008 11.008 11.008h18.827l23.748 7.728h24.885v53.834H53.583l-23.748 7.721H11.008C4.928 268.785 0 273.713 0 279.792S4.928 290.8 11.008 290.8h18.828l23.748 7.727h24.885v53.835H53.583l-23.748 7.721H11.007C4.928 360.082 0 365.011 0 371.09s4.928 11.008 11.008 11.008h18.828l23.748 7.728h24.885v24.885l7.721 23.747v18.828c0 6.079 4.928 11.008 11.008 11.008 6.079 0 11.008-4.928 11.008-11.008v-18.828l7.727-23.747v-24.885h53.835v24.885l7.721 23.747v18.828c0 6.079 4.928 11.008 11.008 11.008 6.079 0 11.008-4.928 11.008-11.008v-18.828l7.727-23.747v-24.885h53.834v24.885l7.721 23.747v18.828c0 6.079 4.928 11.008 11.008 11.008 6.079 0 11.008-4.928 11.008-11.008v-18.828l7.727-23.747v-24.885h53.835v24.885l7.72 23.747v18.828c0 6.079 4.928 11.008 11.008 11.008 6.079 0 11.008-4.928 11.008-11.008v-18.828l7.728-23.747v-24.885h24.884l23.747-7.727h18.828c6.079 0 11.008-4.928 11.008-11.008 0-6.079-4.928-11.008-11.008-11.008H438.46l-23.747-7.721h-24.884v-53.835h24.884l23.747-7.727h18.828c6.079 0 11.008-4.928 11.008-11.008 0-6.079-4.928-11.008-11.008-11.008H438.46l-23.747-7.721h-24.884v-53.834h24.884l23.747-7.728h18.828c6.079 0 11.008-4.928 11.008-11.008 0-6.079-4.928-11.008-11.008-11.008H438.46l-23.747-7.721h-24.884v-53.835h24.881zm-153.646 0v53.835H207.23v-53.835h53.834zm0 91.298v53.834H207.23v-53.834h53.834zm-145.133-91.298h53.835v53.835h-53.835v-53.835zm0 91.298h53.835v53.834h-53.835v-53.834zm0 145.133v-53.835h53.835v53.835h-53.835zm91.299 0v-53.835h53.834v53.835H207.23zm145.133 0h-53.835v-53.835h53.835v53.835zm0-91.298h-53.835V207.23h53.835v53.834zm0-91.298h-53.835v-53.835h53.835v53.835z" fill="#e1e6e9"/><path d="M402.732 421.463H65.561c-10.345 0-18.732-8.387-18.732-18.732V65.561c0-10.345 8.386-18.732 18.732-18.732h337.171c10.345 0 18.732 8.386 18.732 18.732v337.171c-.001 10.345-8.387 18.731-18.732 18.731z" fill="#64798a"/><path fill="#fff" d="M71.805 71.805h324.683v324.683H71.805z"/><circle cx="234.146" cy="234.146" r="131.122" fill="#fcd462"/><circle cx="234.146" cy="234.146" r="117.741" fill="#dc8744"/><circle cx="234.146" cy="234.146" r="105.041" fill="#fcd462"/><path d="M129.104 234.146c0 58.012 47.028 105.04 105.04 105.04V129.105c-58.012 0-105.04 47.028-105.04 105.041z" fill="#f6c358"/><path d="M255.763 234.146c7.403-5.634 11.74-14.275 11.74-23.669 0-16.445-13.379-29.824-29.824-29.824h-3.353v-12.309h-6.155v12.309h-7.18v-12.309h-6.155v12.309h-14.052v12.309h7.897v35.029h-7.897V240.3h7.897v35.029h-7.897v12.309h14.052v12.309h6.155v-12.309h7.18v12.309h6.155v-12.309h3.353c16.445 0 29.824-13.379 29.824-29.824.001-9.394-4.337-18.035-11.74-23.668zm-18.083 41.183h-16.688V240.3h16.688c9.657 0 17.514 7.858 17.514 17.514 0 9.657-7.857 17.515-17.514 17.515zm0-47.338h-16.688v-35.029h16.688c9.657 0 17.514 7.858 17.514 17.514 0 9.657-7.857 17.515-17.514 17.515z" fill="#e56353"/></svg>