<svg xmlns="http://www.w3.org/2000/svg" viewBox="0 0 468.293 468.293"><path d="M234.146 0L57.889 74.038v207.309s-.898 109.324 176.257 186.945c177.155-77.621 176.257-186.945 176.257-186.945V74.038L234.146 0z" fill="#64798a"/><path d="M385.411 90.606v190.752c-.063 3.621-3.434 91.036-151.29 159.532V27.105l151.29 63.501z" fill="#e1e6e9"/><path d="M234.121 27.105v413.784C86.39 372.33 82.832 282.481 82.894 281.544V90.606l151.227-63.501z" fill="#ebf0f3"/><circle cx="234.146" cy="218.936" r="112.39" fill="#27a2db"/><path d="M330.066 218.945c0 52.958-42.948 95.906-95.906 95.906-29.581 0-56.045-13.397-73.608-34.437l139.424-131.242c18.522 17.474 30.09 42.26 30.09 69.773z" fill="#1c75a1"/><path d="M299.976 149.173L160.552 280.415c-13.936-16.634-22.298-38.063-22.298-61.47 0-52.988 42.918-95.906 95.906-95.906 25.445 0 48.612 9.92 65.816 26.134z" fill="#2d93ba"/><path d="M253.886 218.934c6.759-5.144 10.72-13.034 10.72-21.611 0-15.015-12.216-27.23-27.23-27.23h-3.061v-11.239h-5.62v11.239h-6.556v-11.239h-5.62v11.239h-12.83v11.239h7.21v31.983h-7.21v11.239h7.21v31.983h-7.21v11.239h12.83v11.239h5.62v-11.239h6.556v11.239h5.62v-11.239h3.061c15.015 0 27.23-12.216 27.23-27.23-.001-8.579-3.961-16.469-10.72-21.612zm-16.511 37.602h-15.237v-31.983h15.237c8.817 0 15.991 7.174 15.991 15.991s-7.174 15.992-15.991 15.992zm0-43.222h-15.237v-31.983h15.237c8.817 0 15.991 7.174 15.991 15.991s-7.174 15.992-15.991 15.992z" fill="#e1e6e9"/></svg>