<svg height="512" viewBox="0 0 64 64" width="512" xmlns="http://www.w3.org/2000/svg"><path d="M13.489 47.84l1.048-1.703 13.004 7.998-1.048 1.704zm35.985-28.72l-.948 1.76-13-7 .948-1.76M31 18h2v7h-2zm0 20h2v9h-2zm22-13h2v13h-2zM9 25h2v14H9zm5.543-5.899l11.994-5.996.894 1.788-11.994 5.996zm21.984 33.99l11.994-5.996.894 1.788-11.994 5.996z" fill="#7ed63e"/><path d="M47 15l7 4 7-4-7-4z" fill="#ff5023"/><path d="M47 15v8l7 4v-8z" fill="#ff9811"/><path d="M54 27l7-4v-8l-7 4zm-22-8l7-4V7l-7 4z" fill="#ffb655"/><path d="M39 7l-7-4-7 4 7 4z" fill="#ff5023"/><path d="M32 11l-7-4v8l7 4zM3 15v8l7 4v-8z" fill="#ff9811"/><path d="M17 15l-7-4-7 4 7 4z" fill="#ff5023"/><path d="M17 19v-4l-7 4v8l7-4z" fill="#ffb655"/><path d="M32 32l7-4-7-4-7 4z" fill="#ff5023"/><path d="M32 40l7-4v-8l-7 4z" fill="#ffb655"/><path d="M25 28v8l7 4v-8z" fill="#ff9811"/><path d="M54 53l7-4v-8l-7 4z" fill="#ffb655"/><path d="M54 45l7-4-7-4-7 4z" fill="#ff5023"/><path d="M47 41v8l7 4v-8z" fill="#ff9811"/><path d="M32 53l7-4-7-4-7 4z" fill="#ff5023"/><path d="M32 53v8l7-4v-8z" fill="#ffb655"/><path d="M25 49v8l7 4v-8z" fill="#ff9811"/><path d="M17 41l-7-4-7 4 7 4z" fill="#ff5023"/><path d="M3 41v8l7 4v-8z" fill="#ff9811"/><path d="M10 45v8l7-4v-8z" fill="#ffb655"/></svg>