<svg xmlns="http://www.w3.org/2000/svg" viewBox="0 0 512 512"><path d="M59.733 119.467h-51.2a8.533 8.533 0 010-17.066h51.2a8.533 8.533 0 010 17.066zm110.934 0H128a8.533 8.533 0 010-17.066h42.667a8.533 8.533 0 010 17.066zM128 93.867a8.53 8.53 0 01-8.534-8.534h-51.2a8.533 8.533 0 01-17.066 0V76.8a8.53 8.53 0 018.534-8.534H128a8.53 8.53 0 018.534 8.534v8.533A8.53 8.53 0 01128 93.867zm0 59.733H59.733a8.53 8.53 0 01-8.534-8.534v-8.533a8.533 8.533 0 0117.066 0h51.2a8.533 8.533 0 0117.066 0v8.533A8.53 8.53 0 01128 153.6zm375.467-34.133h-51.2a8.533 8.533 0 010-17.066h51.2a8.533 8.533 0 010 17.066zm-119.467 0h-42.667a8.533 8.533 0 010-17.066H384a8.533 8.533 0 010 17.066zm68.267-25.6a8.53 8.53 0 01-8.534-8.534h-51.2a8.533 8.533 0 01-17.066 0V76.8a8.53 8.53 0 018.534-8.534h68.267a8.53 8.53 0 018.534 8.534v8.533a8.53 8.53 0 01-8.535 8.534zm0 59.733H384a8.53 8.53 0 01-8.534-8.534v-8.533a8.533 8.533 0 0117.066 0h51.2a8.533 8.533 0 0117.066 0v8.533a8.53 8.53 0 01-8.531 8.534z" fill="#4482c3"/><path d="M341.333 93.867v128H307.2v-128c0-28.277-22.923-51.2-51.2-51.2-28.277 0-51.2 22.923-51.2 51.2v128h-34.133v-128c0-47.128 38.205-85.333 85.333-85.333s85.333 38.204 85.333 85.333z" fill="#95a5a5"/><path d="M170.667 452.267h170.667V486.4c0 9.426-7.641 17.067-17.067 17.067H187.733c-9.426 0-17.067-7.641-17.067-17.067v-34.133z" fill="#b19046"/><path d="M162.133 204.8h187.733c9.426 0 17.067 7.641 17.067 17.067v230.4c0 9.426-7.641 17.067-17.067 17.067H162.133c-9.426 0-17.067-7.641-17.067-17.067v-230.4c.001-9.426 7.642-17.067 17.067-17.067z" fill="#e4c05c"/><path fill="#f3d55b" d="M145.067 238.933h221.867V435.2H145.067z"/><path d="M292.574 330.195a28.04 28.04 0 006.093-17.328v-2.8c-.098-14.543-11.132-26.679-25.6-28.156v-8.844c0-4.713-3.82-8.533-8.533-8.533s-8.533 3.82-8.533 8.533v8.533h-17.067v-8.533a8.533 8.533 0 00-17.066 0v8.533h-8.533a8.533 8.533 0 000 17.066h56.633c6.358-.058 11.562 5.042 11.633 11.4v2.8c-.071 6.358-5.276 11.458-11.633 11.4h-31.033a8.533 8.533 0 00-17.066 0v25.6a8.533 8.533 0 0017.066 0v-8.533h34.492c9.104-.109 16.578 7.171 16.708 16.275v1.583c-.13 9.104-7.604 16.384-16.708 16.275h-60.092a8.533 8.533 0 000 17.066h8.533v8.533a8.533 8.533 0 0017.066 0v-8.533H256v8.533a8.533 8.533 0 0017.066 0v-8.533h.358c18.525.098 33.634-14.817 33.775-33.342v-1.583a33.184 33.184 0 00-14.625-27.412z" fill="#f9eab0"/></svg>