<svg xmlns="http://www.w3.org/2000/svg" height="682.667" viewBox="0 0 512 512" width="682.667"><path d="M494.344 485.516H17.656V158.895c0-9.75 7.903-17.653 17.653-17.653h441.379c9.753 0 17.656 7.903 17.656 17.653zm0 0" fill="#a7a9ac"/><path d="M459.035 274.863c-21.84 76.246-81.441 135.848-157.687 157.688h157.687zm0 0" fill="#96c8ef"/><path d="M52.965 176.55v256h248.383c76.246-21.84 135.847-81.44 157.687-157.687v-98.312zm0 0" fill="#78b9eb"/><path d="M300.137 459.035c-.028 9.738-7.914 17.625-17.653 17.652h-61.793c-9.742-.027-17.629-7.914-17.656-17.652H0v17.652C0 496.192 15.809 512 35.313 512h441.375C496.19 512 512 496.191 512 476.687v-17.652zm70.621-229.519c.031 9.738 7.918 17.629 17.656 17.656h105.93c9.738-.027 17.625-7.918 17.656-17.656v-17.653H370.758zM494.344 0h-105.93c-9.738.027-17.625 7.918-17.656 17.656V35.31H512V17.656C511.969 7.918 504.082.027 494.344 0zm0 0" fill="#6d6e71"/><path d="M459.035 123.586c9.75 0 17.652-7.902 17.652-17.656 0-9.75-7.902-17.653-17.652-17.653h-35.312v35.309zm-35.312 35.309h35.312c9.75 0 17.652-7.903 17.652-17.653s-7.902-17.656-17.652-17.656h-35.312zm0 0" fill="#ffaf46"/><path d="M264.828 300.137h-44.137a8.829 8.829 0 01-8.828-8.828v-52.965a8.829 8.829 0 018.828-8.828h44.137c19.5 0 35.309 15.808 35.309 35.312 0 19.5-15.809 35.309-35.309 35.309zm-35.312-17.657h35.312c9.75 0 17.652-7.902 17.652-17.652s-7.902-17.656-17.652-17.656h-35.312zm0 0" fill="#ff6243"/><path d="M273.656 370.758h-52.965a8.829 8.829 0 01-8.828-8.828v-70.621a8.829 8.829 0 018.828-8.829h52.965c24.375 0 44.137 19.762 44.137 44.141 0 24.375-19.762 44.137-44.137 44.137zm-44.14-17.653h44.14c14.625 0 26.48-11.859 26.48-26.484 0-14.625-11.855-26.484-26.48-26.484h-44.14zm-8.825-105.933h-17.656a8.829 8.829 0 010-17.656h17.656a8.829 8.829 0 010 17.656zm0 0" fill="#ff6243"/><path d="M220.691 370.758h-17.656a8.829 8.829 0 010-17.656h17.656a8.829 8.829 0 010 17.656zm17.653-123.586a8.829 8.829 0 01-8.828-8.828V220.69a8.829 8.829 0 0117.656 0v17.653a8.829 8.829 0 01-8.828 8.828zm26.484 0a8.829 8.829 0 01-8.828-8.828V220.69a8.829 8.829 0 0117.656 0v17.653a8.829 8.829 0 01-8.828 8.828zm0 0" fill="#ff6243"/><path d="M238.344 388.414a8.829 8.829 0 01-8.828-8.828V361.93a8.829 8.829 0 0117.656 0v17.656a8.829 8.829 0 01-8.828 8.828zm26.484 0a8.829 8.829 0 01-8.828-8.828V361.93a8.829 8.829 0 0117.656 0v17.656a8.829 8.829 0 01-8.828 8.828zm0 0" fill="#ff6243"/><path d="M414.895 211.863H512v-97.105c0 53.629-43.477 97.105-97.105 97.105zm0 0" fill="#ffbb60"/><path d="M470.625 35.313h-99.867v176.55h44.137c53.628 0 97.105-43.476 97.105-97.105V35.313zm6.063 105.93c0 9.75-7.903 17.652-17.653 17.652h-35.312V88.277h35.312c9.75 0 17.652 7.903 17.652 17.653 0 9.754-7.902 17.656-17.652 17.656 9.75 0 17.652 7.906 17.652 17.656zm0 0" fill="#ffaf46"/><path d="M485.516 105.93c0-14.625-11.856-26.48-26.48-26.48h-8.829v-8.83a8.829 8.829 0 00-17.656 0v8.828h-26.485c-4.875 0-8.824 3.953-8.824 8.828s3.95 8.828 8.824 8.828h8.829v52.965h-8.829c-4.875 0-8.824 3.953-8.824 8.828s3.95 8.829 8.824 8.829h26.485v8.828a8.829 8.829 0 0017.656 0v-8.828h8.828c14.563.062 26.418-11.692 26.485-26.254.027-6.614-2.43-13-6.887-17.887a26.325 26.325 0 006.883-17.656zm-17.653 0a8.829 8.829 0 01-8.828 8.828h-26.484V97.105h26.484c4.875-.003 8.828 3.95 8.828 8.825zm-8.828 44.14h-26.484v-17.656h26.484a8.829 8.829 0 010 17.656zm0 0" fill="#ff6243"/></svg>