<svg height="512" viewBox="0 0 64 64" width="512" xmlns="http://www.w3.org/2000/svg"><path d="M51 29V7c0-2.21-1.79-4-4-4H7C4.79 3 3 4.79 3 7v22s47.87-.062 48 0z" fill="#d5dbdb"/><path d="M27.15 29h2.402l.006-.006-.966-3.187 1.153-.836a21.1 21.1 0 013.613-2.1l1.312-.6 2.293 2.461c.251-.074.504-.142.76-.205l.76-3.256 1.401-.159C40.555 21.037 41.246 21 42 21s1.445.037 2.115.113l.885.1V7H9v22h16.512l.294-.405z" fill="#edfcfc"/><path d="M9 7h36v8H9z" fill="#fda22e"/><path d="M22.27 49.333L23.698 48H9c0 2.21 1.79 4 4 4h10.557a21.65 21.65 0 01-.683-1.354z" fill="#4bbee5"/><path d="M24.732 47.035a15.94 15.94 0 01-.204-.758l-3.259-.76-.157-1.405C21.037 43.438 21 42.748 21 42s.037-1.438.112-2.112l.157-1.405 3.258-.76c.059-.242.126-.483.197-.723H19l-4 11h8.698z" fill="#3c7eb0"/><path d="M24.734 36.961l-2.442-2.287.583-1.302c.573-1.28 1.278-2.5 2.096-3.627l.541-.745H3v4c0 2.21 1.79 4 4 4h17.724a.558.558 0 00.01-.039zm4.262-7.404c.182-.19.367-.375.556-.557H27.15z" fill="#4bbee5"/><path d="M49.316 22.3l-2.276 2.433a17.899 17.899 0 00-.764-.206l-.76-3.256-.516-.058V29h6v-5.94c-.13-.062-.254-.133-.388-.192z" fill="#b9baba"/><path d="M44.115 21.113C43.445 21.037 42.754 21 42 21s-1.445.037-2.115.113l-1.401.159-.76 3.256c-.256.062-.509.131-.76.205l-2.293-2.461-1.312.6a21.034 21.034 0 00-3.613 2.1l-1.153.836.966 3.187-.006.006H45v-7.787zm-18.308 7.482l-.295.405h1.638z" fill="#d5dbdb"/><path d="M24.69 49.81L26.63 48h-2.932l-1.429 1.333.604 1.312c.216.47.447.921.683 1.354h2.313a19.227 19.227 0 01-1.179-2.189z" fill="#4198ce"/><path d="M24.527 37.723l-3.258.76-.157 1.405C21.037 40.562 21 41.252 21 42s.037 1.438.112 2.112l.157 1.405 3.259.76c.062.255.13.508.204.758L23.698 48h2.932l.41-.38c-.37-.96-.64-1.96-.81-3l-3.13-.73c-.07-.62-.1-1.25-.1-1.89s.03-1.27.1-1.89l3.13-.73c.13-.82.33-1.61.59-2.38h-2.096c-.071.24-.137.481-.197.723z" fill="#296991"/><path d="M28.996 29.557L27.15 29h-1.638l-.541.745a20.474 20.474 0 00-2.096 3.627l-.583 1.302 2.442 2.287a.558.558 0 00-.01.039h2.096c.07-.21.14-.42.22-.62l-2.34-2.19a18.3 18.3 0 011.89-3.27l3.05.92c.66-.8 1.4-1.54 2.2-2.2l-.19-.64h-2.098c-.189.182-.374.367-.556.557z" fill="#4198ce"/><path d="M26.63 48l.41-.38c-.37-.96-.64-1.96-.81-3l-3.13-.73c-.07-.62-.1-1.25-.1-1.89s.03-1.27.1-1.89l3.13-.73c.13-.82.33-1.61.59-2.38.07-.21.14-.42.22-.62l-2.34-2.19a18.3 18.3 0 011.89-3.27l3.05.92c.66-.8 1.4-1.54 2.2-2.2l-.19-.64-.73-2.41c1.02-.74 2.11-1.37 3.27-1.9l2.19 2.35c.96-.37 1.96-.64 3-.81l.73-3.13c.62-.07 1.25-.1 1.89-.1s1.27.03 1.89.1l.73 3.13c1.04.17 2.04.44 3 .81l2.19-2.34c.41.18.8.38 1.19.59.72.38 1.42.82 2.08 1.3l-.92 3.05c.8.66 1.54 1.4 2.2 2.2l3.05-.92c.74 1.02 1.37 2.11 1.9 3.27l-2.35 2.19c.37.96.64 1.96.81 3l3.13.73c.07.62.1 1.25.1 1.89s-.03 1.27-.1 1.89l-3.13.73c-.17 1.04-.44 2.04-.81 3l2.34 2.19a18.3 18.3 0 01-1.89 3.27l-3.05-.92c-.66.8-1.4 1.54-2.2 2.2l.92 3.05c-1.02.74-2.11 1.37-3.27 1.9l-2.19-2.35c-.96.37-1.96.64-3 .81l-.73 3.13c-.62.07-1.25.1-1.89.1s-1.27-.03-1.89-.1l-.73-3.13c-1.04-.17-2.04-.44-3-.81l-2.19 2.34a18.3 18.3 0 01-3.27-1.89l.92-3.05c-.8-.66-1.54-1.4-2.2-2.2l-3.05.92c-.25-.35-.5-.71-.72-1.08-.44-.7-.83-1.43-1.18-2.19zM48 42c0-3.31-2.69-6-6-6s-6 2.69-6 6 2.69 6 6 6 6-2.69 6-6z" fill="#f82f45"/><path d="M42 34a8 8 0 100 16 8 8 0 000-16zm0 14a6 6 0 110-12 6 6 0 010 12z" fill="#d22435"/><path d="M37.707 11.293l-1.414 1.414L38.586 15H26c-2.757 0-5 2.243-5 5v6h2v-6c0-1.654 1.346-3 3-3h12.586l-2.293 2.293 1.414 1.414L42.414 16zM12 10h2v2h-2zm4 0h2v2h-2zm4 0h2v2h-2z" fill="#2d366d"/><path d="M42.549 53.988l-.09-1.998a10.063 10.063 0 001.776-.24l.445 1.95a12.19 12.19 0 01-2.131.288zm-3.205-.283a11.915 11.915 0 01-2.049-.662l.785-1.84c.549.234 1.122.42 1.703.551zm8.35-1.14l-.949-1.76a10.171 10.171 0 001.494-.989l1.248 1.562c-.56.449-1.164.848-1.793 1.187zm-13.163-1.172a12.069 12.069 0 01-1.557-1.484l1.504-1.318c.394.449.83.866 1.297 1.237zm17.18-2.342l-1.617-1.177c.351-.482.66-1 .92-1.538l1.801.868a11.96 11.96 0 01-1.104 1.847zm-20.516-1.825a11.997 11.997 0 01-.759-2.013l1.928-.532a9.88 9.88 0 00.632 1.674zm22.615-3.085l-1.969-.355c.105-.583.159-1.184.159-1.786l2-.043V42c0 .721-.064 1.441-.19 2.141zM30 42.022V42c0-.711.062-1.423.187-2.117l1.969.351A10.101 10.101 0 0032 42zm21.631-2.721a9.772 9.772 0 00-.634-1.672l1.797-.876c.315.647.573 1.324.765 2.013zm-18.653-1.619l-1.803-.865c.31-.646.68-1.268 1.101-1.848l1.619 1.173a10.01 10.01 0 00-.917 1.54zm16.531-2.286a10.141 10.141 0 00-1.302-1.236l1.244-1.566c.56.444 1.084.942 1.558 1.48zm-13.763-1.2l-1.252-1.56c.56-.449 1.161-.849 1.789-1.19l.955 1.758c-.524.284-1.026.618-1.492.992zm10.153-1.407a9.929 9.929 0 00-1.704-.548l.438-1.951a11.86 11.86 0 012.05.658zm-6.153-.534l-.449-1.949a11.93 11.93 0 012.131-.292l.094 1.998c-.598.028-1.195.11-1.776.243z" fill="#d5dbdb"/></svg>