<svg version="1.1" id="Layer_1" xmlns="http://www.w3.org/2000/svg" x="0" y="0" viewBox="0 0 706.7 706.7" xml:space="preserve"><style>.st0{fill:#587399}.st4{fill:#fede80}.st5{fill:#4b5a68}</style><path class="st0" d="M307.3 132.6h93.6V191h-93.6zm0 384.6h93.6v58.4h-93.6z"/><path transform="rotate(90 542.077 353.8)" class="st0" d="M495.3 324.6h93.6V383h-93.6z"/><path transform="rotate(90 157.41 353.8)" class="st0" d="M110.6 324.6h93.6V383h-93.6z"/><path transform="rotate(-45.001 217.343 217.681)" class="st0" d="M170.6 188.5h93.6v58.4h-93.6z"/><path transform="rotate(-45.001 489.341 489.686)" class="st0" d="M442.6 460.5h93.6v58.4h-93.6z"/><path transform="rotate(-134.999 217.538 490.076)" class="st0" d="M170.8 460.9h93.6v58.4h-93.6z"/><path transform="rotate(-134.999 489.54 218.075)" class="st0" d="M442.8 188.9h93.6v58.4h-93.6z"/><circle class="st0" cx="353.8" cy="354.4" r="187.2"/><circle cx="353.4" cy="353.8" r="135.9" fill="#6586b2"/><circle cx="354.1" cy="353.5" r="113.7" fill="#bcd4e8"/><path fill="#fc6056" d="M404.8 352.7l-79.6-45.9v91.9z"/><circle class="st4" cx="35.8" cy="39" r="35.2"/><path class="st5" d="M114.1 51.3H93.6c-1.1 0-2-.9-2-2V28.8c0-1.1.9-2 2-2H114c1.1 0 2 .9 2 2v20.4c.1 1.2-.8 2.1-1.9 2.1zm39.8 0h-20.4c-1.1 0-2-.9-2-2V28.8c0-1.1.9-2 2-2h20.4c1.1 0 2 .9 2 2v20.4c0 1.2-.9 2.1-2 2.1zm39.7 0h-20.4c-1.1 0-2-.9-2-2V28.8c0-1.1.9-2 2-2h20.4c1.1 0 2 .9 2 2v20.4c0 1.2-.9 2.1-2 2.1zm39.8 0H213c-1.1 0-2-.9-2-2V28.8c0-1.1.9-2 2-2h20.4c1.1 0 2 .9 2 2v20.4c0 1.2-.9 2.1-2 2.1zm39.8 0h-20.4c-1.1 0-2-.9-2-2V28.8c0-1.1.9-2 2-2h20.4c1.1 0 2 .9 2 2v20.4c0 1.2-.9 2.1-2 2.1zm39.7 0h-20.4c-1.1 0-2-.9-2-2V28.8c0-1.1.9-2 2-2h20.4c1.1 0 2 .9 2 2v20.4c0 1.2-.9 2.1-2 2.1zm39.8 0h-20.4c-1.1 0-2-.9-2-2V28.8c0-1.1.9-2 2-2h20.4c1.1 0 2 .9 2 2v20.4c0 1.2-.9 2.1-2 2.1zm0 40.5h-20.4c-1.1 0-2-.9-2-2V69.3c0-1.1.9-2 2-2h20.4c1.1 0 2 .9 2 2v20.4c0 1.2-.9 2.1-2 2.1z"/><circle class="st4" cx="39.6" cy="671.8" r="35.2"/><path class="st5" d="M51.8 593.5v20.4c0 1.1-.9 2-2 2H29.4c-1.1 0-2-.9-2-2v-20.4c0-1.1.9-2 2-2h20.4c1.1 0 2 .9 2 2zm0-39.8v20.4c0 1.1-.9 2-2 2H29.4c-1.1 0-2-.9-2-2v-20.4c0-1.1.9-2 2-2h20.4c1.1 0 2 .9 2 2zm0-39.7v20.4c0 1.1-.9 2-2 2H29.4c-1.1 0-2-.9-2-2V514c0-1.1.9-2 2-2h20.4c1.1 0 2 .9 2 2zm0-39.8v20.4c0 1.1-.9 2-2 2H29.4c-1.1 0-2-.9-2-2v-20.4c0-1.1.9-2 2-2h20.4c1.1 0 2 .9 2 2zm0-39.8v20.4c0 1.1-.9 2-2 2H29.4c-1.1 0-2-.9-2-2v-20.4c0-1.1.9-2 2-2h20.4c1.1 0 2 .9 2 2zm0-39.7v20.4c0 1.1-.9 2-2 2H29.4c-1.1 0-2-.9-2-2v-20.4c0-1.1.9-2 2-2h20.4c1.1 0 2 .9 2 2zm0-39.8v20.4c0 1.1-.9 2-2 2H29.4c-1.1 0-2-.9-2-2v-20.4c0-1.1.9-2 2-2h20.4c1.1 0 2 .9 2 2zm40.5 0v20.4c0 1.1-.9 2-2 2H69.9c-1.1 0-2-.9-2-2v-20.4c0-1.1.9-2 2-2h20.4c1.2 0 2 .9 2 2z"/><circle class="st4" cx="672.4" cy="668" r="35.2"/><path class="st5" d="M594.1 655.8h20.4c1.1 0 2 .9 2 2v20.4c0 1.1-.9 2-2 2h-20.4c-1.1 0-2-.9-2-2v-20.4c0-1.1.9-2 2-2zm-39.8 0h20.4c1.1 0 2 .9 2 2v20.4c0 1.1-.9 2-2 2h-20.4c-1.1 0-2-.9-2-2v-20.4c0-1.1.9-2 2-2zm-39.8 0H535c1.1 0 2 .9 2 2v20.4c0 1.1-.9 2-2 2h-20.4c-1.1 0-2-.9-2-2v-20.4c-.1-1.1.8-2 1.9-2zm-39.7 0h20.4c1.1 0 2 .9 2 2v20.4c0 1.1-.9 2-2 2h-20.4c-1.1 0-2-.9-2-2v-20.4c0-1.1.9-2 2-2zm-39.8 0h20.4c1.1 0 2 .9 2 2v20.4c0 1.1-.9 2-2 2H435c-1.1 0-2-.9-2-2v-20.4c0-1.1.9-2 2-2zm-39.8 0h20.4c1.1 0 2 .9 2 2v20.4c0 1.1-.9 2-2 2h-20.4c-1.1 0-2-.9-2-2v-20.4c0-1.1.9-2 2-2zm-39.7 0h20.4c1.1 0 2 .9 2 2v20.4c0 1.1-.9 2-2 2h-20.4c-1.1 0-2-.9-2-2v-20.4c0-1.1.9-2 2-2zm0-40.6h20.4c1.1 0 2 .9 2 2v20.4c0 1.1-.9 2-2 2h-20.4c-1.1 0-2-.9-2-2v-20.4c0-1.1.9-2 2-2z"/><circle class="st4" cx="668.6" cy="35.2" r="35.2"/><path class="st5" d="M656.3 113.5V93.1c0-1.1.9-2 2-2h20.4c1.1 0 2 .9 2 2v20.4c0 1.1-.9 2-2 2h-20.4c-1.1 0-2-.9-2-2zm0 39.8v-20.4c0-1.1.9-2 2-2h20.4c1.1 0 2 .9 2 2v20.4c0 1.1-.9 2-2 2h-20.4c-1.1 0-2-.9-2-2zm0 39.8v-20.4c0-1.1.9-2 2-2h20.4c1.1 0 2 .9 2 2v20.4c0 1.1-.9 2-2 2h-20.4c-1.1-.1-2-.9-2-2zm0 39.7v-20.4c0-1.1.9-2 2-2h20.4c1.1 0 2 .9 2 2v20.4c0 1.1-.9 2-2 2h-20.4c-1.1 0-2-.9-2-2zm0 39.8v-20.4c0-1.1.9-2 2-2h20.4c1.1 0 2 .9 2 2v20.4c0 1.1-.9 2-2 2h-20.4c-1.1 0-2-.9-2-2zm0 39.8V292c0-1.1.9-2 2-2h20.4c1.1 0 2 .9 2 2v20.4c0 1.1-.9 2-2 2h-20.4c-1.1 0-2-.9-2-2zm0 39.7v-20.4c0-1.1.9-2 2-2h20.4c1.1 0 2 .9 2 2v20.4c0 1.1-.9 2-2 2h-20.4c-1.1 0-2-.9-2-2zm-40.5 0v-20.4c0-1.1.9-2 2-2h20.4c1.1 0 2 .9 2 2v20.4c0 1.1-.9 2-2 2h-20.4c-1.1 0-2-.9-2-2z"/></svg>