<svg xmlns="http://www.w3.org/2000/svg" viewBox="0 0 494 494" width="512" height="512"><path d="M92.508 0H15.463c-8.284 0-15 6.716-15 15v77.045c0 8.284 6.716 15 15 15s15-6.716 15-15V30h62.045c8.284 0 15-6.716 15-15s-6.716-15-15-15z" fill="#a8d384"/><path d="M478.537 0h-77.045c-8.284 0-15 6.716-15 15s6.716 15 15 15h62.045v62.045c0 8.284 6.716 15 15 15s15-6.716 15-15V15c0-8.284-6.716-15-15-15zm0 386.955c-8.284 0-15 6.716-15 15V464h-62.045c-8.284 0-15 6.716-15 15s6.716 15 15 15h77.045c8.284 0 15-6.716 15-15v-77.045c0-8.284-6.716-15-15-15z" fill="#80c469"/><path d="M92.508 464H30.463v-62.045c0-8.284-6.716-15-15-15s-15 6.716-15 15V479c0 8.284 6.716 15 15 15h77.045c8.284 0 15-6.716 15-15s-6.716-15-15-15z" fill="#a8d384"/><path d="M426.03 254.14c-22.04 21.62-93.85 84.93-179.03 84.93S90.01 275.76 67.97 254.14c-4-3.93-4-10.35 0-14.28 22.04-21.62 93.85-84.93 179.03-84.93s156.99 63.31 179.03 84.93c4 3.93 4 10.35 0 14.28z" fill="#c2e5e6"/><path d="M426.03 254.14c-22.04 21.62-93.85 84.93-179.03 84.93V154.93c85.18 0 156.99 63.31 179.03 84.93 4 3.93 4 10.35 0 14.28z" fill="#98d5d2"/><circle cx="247" cy="247" r="76.5" fill="#3b9ad6"/><path d="M323.5 247c0 42.25-34.25 76.5-76.5 76.5v-153c42.25 0 76.5 34.25 76.5 76.5z" fill="#2880bd"/><path d="M286.32 247c0 21.72-17.6 39.32-39.32 39.32s-39.32-17.6-39.32-39.32 17.6-39.32 39.32-39.32 39.32 17.6 39.32 39.32z" fill="#154864"/><path d="M286.32 247c0 21.72-17.6 39.32-39.32 39.32v-78.64c21.72 0 39.32 17.6 39.32 39.32z" fill="#04293e"/><path d="M315.11 49.94l-58.55 58.55a14.936 14.936 0 01-9.56 4.35 14.953 14.953 0 01-11.66-4.35l-31.81-31.81c-5.86-5.86-5.86-15.36 0-21.22s15.36-5.85 21.22 0l21.2 21.21 47.94-47.94c5.86-5.86 15.36-5.86 21.22 0 5.85 5.85 5.85 15.35 0 21.21z" fill="#a8d384"/><path d="M315.11 49.94l-58.55 58.55a14.936 14.936 0 01-9.56 4.35V75.62l46.89-46.89c5.86-5.86 15.36-5.86 21.22 0 5.85 5.85 5.85 15.35 0 21.21z" fill="#80c469"/><path d="M319.5 386.67c0 8.28-6.72 15-15 15H191.18c-8.29 0-15-6.72-15-15 0-8.29 6.71-15 15-15H304.5c8.28 0 15 6.71 15 15z" fill="#f8a73d"/><path d="M304.5 401.67H247v-30h57.5c8.28 0 15 6.71 15 15 0 8.28-6.72 15-15 15z" fill="#f48558"/><path d="M381.3 440.48c0 8.28-6.72 15-15 15H140.7c-8.28 0-15-6.72-15-15 0-8.29 6.72-15 15-15h225.6c8.28 0 15 6.71 15 15z" fill="#f8a73d"/><path d="M381.3 440.48c0 8.28-6.72 15-15 15H247v-30h119.3c8.28 0 15 6.71 15 15z" fill="#f48558"/><path d="M155.699 384.1c0-8.284-6.716-15-15-15h-30.208l20.271-111.134c1.486-8.149-3.915-15.961-12.065-17.448-8.146-1.483-15.961 3.915-17.448 12.065L77.751 381.409c-1.68 9.215 5.413 17.691 14.757 17.691h48.191c8.284 0 15-6.716 15-15z" fill="#f8a73d"/></svg>