<svg xmlns="http://www.w3.org/2000/svg" width="60" height="60" viewBox="0 0 172 172"><g fill="none" stroke-miterlimit="10" font-family="none" font-weight="none" font-size="none" text-anchor="none" style="mix-blend-mode:normal"><path d="M0 172V0h172v172z"/><path d="M13.706 10.273a3.44 3.44 0 00-3.386 3.487v147.92h151.36a3.44 3.44 0 100-6.88h-13.995c.141-.765.235-1.557.235-2.405V81.337c0-.932.788-1.72 1.72-1.72.932 0 1.72.788 1.72 1.72v28.743a6.885 6.885 0 006.88 6.88 6.885 6.885 0 006.88-6.88V70.52c0-10.434-8.486-18.92-18.92-18.92h-34.4c-10.434 0-18.92 8.486-18.92 18.92v39.56a6.885 6.885 0 006.88 6.88 6.885 6.885 0 006.88-6.88V80.74c0-.933.788-1.72 1.72-1.72.932 0 1.72.787 1.72 1.72v71.655c0 .848.094 1.64.235 2.405H86V72.24H65.36v82.56h-6.88V96.32H37.84v58.48h-6.88v-37.84H17.2V13.76a3.44 3.44 0 00-3.494-3.487zM129 10.32c-10.434 0-18.92 8.486-18.92 18.92 0 10.434 8.486 18.92 18.92 18.92 10.434 0 18.92-8.486 18.92-18.92 0-10.434-8.486-18.92-18.92-18.92zm0 104.92c.95 0 1.72.77 1.72 1.72v36.436c.014.02.04.033.054.054.046.467.15.91.255 1.35h-4.065c.186-.768.316-1.56.316-2.405V116.96c0-.95.77-1.72 1.72-1.72z" fill="#3498db"/></g></svg>