<svg xmlns="http://www.w3.org/2000/svg" width="100" height="100" viewBox="0 0 172 172"><g fill="none" stroke-miterlimit="10" font-family="none" font-weight="none" font-size="none" text-anchor="none" style="mix-blend-mode:normal"><path d="M0 172V0h172v172z"/><path d="M51.6 10.32c-5.69 0-10.32 4.63-10.32 10.32v130.72c0 5.69 4.63 10.32 10.32 10.32h68.8c5.69 0 10.32-4.63 10.32-10.32V120.4h-6.88v13.76H48.16V34.4h75.68v13.76h6.88V20.64c0-5.69-4.63-10.32-10.32-10.32zm27.52 44.72v.504c15.728 13.56 36.044 31.073 37.437 32.284 1.716 1.492 3.375 1.612 3.843 1.612.602 0 2.175-.16 3.843-1.613 1.37-1.19 21.479-18.582 37.437-32.39v-.397zm82.56 9.494c-7.857 6.797-16.165 13.98-22.48 19.45l22.48 18.013zm-82.56.094v37.154l22.44-17.798-22.44-19.356zm27.742 23.925L79.12 110.557v2.963h82.56v-2.708L133.911 88.56c-2.855 2.473-4.76 4.124-5.146 4.461-3.423 2.976-6.992 3.299-8.365 3.299-1.373 0-4.935-.32-8.358-3.292-.392-.34-2.311-2.002-5.18-4.475zM75.68 144.48h20.64a3.437 3.437 0 013.44 3.44 3.437 3.437 0 01-3.44 3.44H75.68a3.437 3.437 0 01-3.44-3.44 3.437 3.437 0 013.44-3.44z" fill="#fff"/></g></svg>