<svg xmlns="http://www.w3.org/2000/svg" width="60" height="60" viewBox="0 0 172 172"><g fill="none" stroke-miterlimit="10" font-family="none" font-weight="none" font-size="none" text-anchor="none" style="mix-blend-mode:normal"><path d="M0 172V0h172v172z"/><path d="M86.275 6.88C42.62 6.88 7.155 42.344 7.155 86c0 43.656 35.464 79.12 79.12 79.12 43.656 0 79.12-35.464 79.12-79.12 0-43.656-35.464-79.12-79.12-79.12zm0 6.88c39.938 0 72.24 32.302 72.24 72.24 0 39.938-32.302 72.24-72.24 72.24-39.937 0-72.24-32.302-72.24-72.24 0-39.938 32.303-72.24 72.24-72.24zm-3.44 7.337C73.92 23.292 66.03 33.853 61.006 48.859c6.925 1.417 14.279 2.25 21.83 2.445zm6.88 0v30.207c7.627-.192 14.984-1.002 21.85-2.391-5.023-15.033-12.926-25.621-21.85-27.816zm-22.642 2.432c-11.028 3.395-20.772 9.674-28.467 17.899 4.682 2.329 9.938 4.274 15.608 5.818 3.21-9.793 7.61-17.917 12.86-23.717zm38.405 0c5.26 5.81 9.67 13.96 12.88 23.778 5.72-1.559 10.974-3.533 15.574-5.9-7.692-8.217-17.436-14.486-28.454-17.878zm32.955 23.254c-5.318 2.886-11.445 5.274-18.174 7.115 2.205 8.665 3.525 18.342 3.77 28.662h27.432a64.902 64.902 0 00-13.028-35.777zm-104.349.04A64.905 64.905 0 0021.09 82.56h27.433c.244-10.34 1.567-20.037 3.782-28.716-6.666-1.823-12.81-4.183-18.22-7.021zm24.954 8.64c-2.116 8.205-3.384 17.417-3.635 27.097h27.432V58.184c-8.214-.206-16.243-1.135-23.797-2.72zm54.482.054c-7.492 1.558-15.514 2.468-23.805 2.667V82.56h27.433c-.251-9.66-1.52-18.852-3.628-27.043zM21.09 89.44a64.902 64.902 0 0013.028 35.777c5.318-2.886 11.445-5.274 18.174-7.115-2.205-8.665-3.525-18.342-3.77-28.662zm34.313 0c.25 9.66 1.52 18.852 3.628 27.043 7.492-1.558 15.514-2.468 23.804-2.667V89.44zm34.312 0v24.376c8.215.206 16.237 1.135 23.792 2.72 2.115-8.204 3.39-17.416 3.641-27.096zm34.313 0c-.244 10.34-1.567 20.037-3.783 28.716 6.667 1.823 12.81 4.183 18.222 7.021A64.905 64.905 0 00151.46 89.44zm-41.193 31.256c-7.626.192-14.983 1.002-21.849 2.391 5.023 15.033 12.926 25.621 21.85 27.816zm6.88 0v30.207c8.917-2.195 16.807-12.756 21.83-27.762-6.925-1.417-14.279-2.25-21.83-2.445zm-35.522 3.997c-5.72 1.559-10.974 3.533-15.574 5.9 7.692 8.218 17.436 14.486 28.454 17.878-5.26-5.81-9.67-13.96-12.88-23.778zm64.144.06c-3.21 9.794-7.617 17.918-12.866 23.718 11.029-3.395 20.779-9.674 28.474-17.899-4.682-2.329-9.939-4.274-15.608-5.818z" fill="#2ecc71"/></g></svg>