<svg xmlns="http://www.w3.org/2000/svg" width="100" height="100" viewBox="0 0 172 172"><g fill="none" stroke-miterlimit="10" font-family="none" font-weight="none" font-size="none" text-anchor="none" style="mix-blend-mode:normal"><path d="M0 172V0h172v172z"/><path d="M130.72 0v13.76h17.845L116.96 45.365l-8.922-8.922-4.838-4.945-4.838 4.945L61.92 72.885l-8.923-8.922-4.837-4.945-4.838 4.945-41.28 41.28 9.675 9.675L48.16 78.475l8.922 8.922 4.838 4.945 4.837-4.944L103.2 50.955l8.922 8.923 4.838 4.945 4.838-4.945 36.442-36.443V41.28H172V0zm20.64 51.6V172h13.76V51.6zM103.2 68.8V172h13.76V68.8zm24.08 0V172h13.76V68.8zM79.12 82.56V172h13.76V82.56zM55.04 103.2V172H68.8v-68.8zm-24.08 3.44V172h13.76v-65.36zM6.88 130.72V172h13.76v-41.28z" fill="#fff"/></g></svg>