<svg xmlns="http://www.w3.org/2000/svg" width="100" height="100" viewBox="0 0 172 172"><g fill="none" stroke-miterlimit="10" font-family="none" font-weight="none" font-size="none" text-anchor="none" style="mix-blend-mode:normal"><path d="M0 172V0h172v172z"/><path d="M158.24 68.8a3.438 3.438 0 003.44-3.44V51.6a3.438 3.438 0 00-3.44-3.44h-34.4v-34.4a3.438 3.438 0 00-3.44-3.44h-13.76a3.438 3.438 0 00-3.44 3.44v34.4H68.8v-34.4a3.447 3.447 0 00-3.44-3.44H51.6a3.447 3.447 0 00-3.44 3.44v34.4h-34.4a3.447 3.447 0 00-3.44 3.44v13.76a3.447 3.447 0 003.44 3.44h34.4v34.4h-34.4a3.438 3.438 0 00-3.44 3.44v13.76a3.438 3.438 0 003.44 3.44h34.4v34.4a3.438 3.438 0 003.44 3.44h13.76a3.438 3.438 0 003.44-3.44v-34.4h34.4v34.4a3.43 3.43 0 003.44 3.44h13.76a3.43 3.43 0 003.44-3.44v-34.4h34.4a3.43 3.43 0 003.44-3.44v-13.76a3.43 3.43 0 00-3.44-3.44h-34.4V68.8zm-55.04 34.4H68.8V68.8h34.4z" fill="#fff"/></g></svg>