<svg xmlns="http://www.w3.org/2000/svg" width="60" height="60" viewBox="0 0 172 172"><g fill="none" stroke-miterlimit="10" font-family="none" font-weight="none" font-size="none" text-anchor="none" style="mix-blend-mode:normal"><path d="M0 172V0h172v172z"/><path d="M13.76 13.76v144.48h144.48v-6.88H20.64V13.76zm30.96 6.88a3.44 3.44 0 100 6.88 3.44 3.44 0 000-6.88zm34.4 0a3.44 3.44 0 100 6.88 3.44 3.44 0 000-6.88zm34.4 0a3.44 3.44 0 100 6.88 3.44 3.44 0 000-6.88zm34.4 0a3.44 3.44 0 100 6.88 3.44 3.44 0 000-6.88zm3.306 27.453a6.88 6.88 0 00-4.73 2.083L113.52 83.15 83.984 53.616a6.88 6.88 0 00-9.728 0l-44.72 44.72a6.88 6.88 0 109.728 9.728L79.12 68.21l29.536 29.535a6.88 6.88 0 009.728 0l37.84-37.84a6.88 6.88 0 00-4.998-11.811zM44.72 55.04a3.44 3.44 0 100 6.88 3.44 3.44 0 000-6.88zm68.8 0a3.44 3.44 0 100 6.88 3.44 3.44 0 000-6.88zm-34.4 34.4a3.44 3.44 0 100 6.88 3.44 3.44 0 000-6.88zm68.8 0a3.44 3.44 0 100 6.88 3.44 3.44 0 000-6.88zm-103.2 34.4a3.44 3.44 0 100 6.88 3.44 3.44 0 000-6.88zm34.4 0a3.44 3.44 0 100 6.88 3.44 3.44 0 000-6.88zm34.4 0a3.44 3.44 0 100 6.88 3.44 3.44 0 000-6.88zm34.4 0a3.44 3.44 0 100 6.88 3.44 3.44 0 000-6.88z" fill="#ef4106"/></g></svg>