<svg xmlns="http://www.w3.org/2000/svg" width="64" height="64"><rect width="100%" height="100%" fill="none"/><g class="currentLayer"><path d="M39 9a7 7 0 00-7.119-6.999c-3.654.061-6.745 3.089-6.877 6.741a6.953 6.953 0 001.584 4.691C28.064 15.226 29 17.399 29 19.721V22h6v-1.943c0-2.477.979-4.799 2.51-6.747A6.945 6.945 0 0039 9z" fill="#fff"/><path d="M.46 52.54c0 2.758 2.242 5 5 5h12v4h-4v2h36v-2h-4v-4h12c2.756 0 5-2.242 5-5v-3h-62v3zm43 9h-24v-4h24v4zm-41-10h58v1c0 1.655-1.347 3-3 3h-52c-1.655 0-3-1.345-3-3v-1zM3 16c0-1.654 1.346-3 3-3h16v-2H6c-2.757 0-5 2.243-5 5v31h2V16zm55-5H42v2h16c1.654 0 3 1.346 3 3v31h2V16c0-2.757-2.243-5-5-5z" fill="#256fa2"/><path fill="#9d1e44" d="M51 45H13V17h9v-2H11v32h42V15H42v2h9z"/><path d="M28 19.721V23h8v-2.942c0-2.1.794-4.219 2.296-6.129A7.899 7.899 0 0040 9a7.94 7.94 0 00-2.391-5.704A7.938 7.938 0 0032.001 1l-.137.001c-4.184.069-7.709 3.526-7.858 7.705a7.972 7.972 0 001.811 5.363C27.245 15.804 28 17.758 28 19.721zM34 21h-4v-1h4.003c0 .019-.003.038-.003.058V21zM31.897 3.001a5.91 5.91 0 014.31 1.721A5.956 5.956 0 0138 9a5.914 5.914 0 01-1.276 3.692c-1.302 1.655-2.149 3.46-2.515 5.308H33v-5h-2v5h-1.157c-.326-1.83-1.165-3.603-2.482-5.203a5.976 5.976 0 01-1.357-4.02c.112-3.132 2.756-5.724 5.893-5.776zM32 25c-.552 0-1-.449-1-1h-2c0 1.654 1.346 3 3 3s3-1.346 3-3h-2c0 .551-.448 1-1 1z" fill="#9d1e44"/><path fill="#9d1e44" d="M31 9h2v2h-2zm1 28c4.411 0 8-3.589 8-8a7.94 7.94 0 00-2.398-5.711l-1.4 1.428A5.955 5.955 0 0138 29c0 3.309-2.691 6-6 6s-6-2.691-6-6c0-1.58.608-3.071 1.714-4.198l-1.428-1.4A7.952 7.952 0 0024 29c0 4.411 3.589 8 8 8z"/><path d="M35.781 43h-7.562l-.722-2.887-.171-.071-2.553 1.531-4.794-4.794 1.414-1.414 3.69 3.69 2.122-1.273.484.231a9.8 9.8 0 00.982.407l.508.179.602 2.401h4.438l.601-2.401.508-.179a9.8 9.8 0 00.982-.407l.484-.231 2.122 1.273 3.139-3.138-1.273-2.123.232-.485c.152-.318.288-.646.407-.982l.179-.506 2.4-.6v-4.438l-2.4-.6-.179-.506a10.084 10.084 0 00-.407-.982l1.803-.864c.105.219.204.443.296.669l2.887.719v7.562l-2.888.722-.07.171 1.53 2.553-5.346 5.346-2.553-1.531-.171.071L35.781 43zm-14.597-8.828a12.121 12.121 0 01-.296-.669L18 32.781v-7.562l2.888-.722.07-.171-1.53-2.553 4.794-4.794 1.414 1.414-3.69 3.69 1.273 2.123-.232.485c-.152.318-.288.646-.407.982l-.18.508-2.4.6v4.438l2.4.6.179.506c.119.336.255.664.407.982l-1.802.865zm17.18-15.778l1.414-1.414 4.242 4.242-1.415 1.414z" fill="#9d1e44"/></g></svg>