<svg xmlns="http://www.w3.org/2000/svg" width="64" height="64"><rect width="100%" height="100%" fill="none"/><path d="M61.5 23.868A1 1 0 0062 23v-8a1 1 0 00-.5-.868l-7-4a1 1 0 00-.992 0l-7 4A1 1 0 0046 15v2.382l-6-3V7a1 1 0 00-.5-.868l-7-4a1 1 0 00-.992 0l-7 4A1 1 0 0024 7v7.382l-6 3V15a1 1 0 00-.5-.868l-7-4a1 1 0 00-.992 0l-7 4A1 1 0 002 15v8a1 1 0 00.5.868L9 27.58v8.84l-6.5 3.712A1 1 0 002 41v8a1 1 0 00.5.868l7 4a1 1 0 00.992 0l6.481-3.7L24 54.555V57a1 1 0 00.5.868l7 4a1 1 0 00.992 0l7-4A1 1 0 0040 57v-2.445l7.023-4.39 6.481 3.7a1 1 0 00.992 0l7-4A1 1 0 0062 49v-8a1 1 0 00-.5-.868L55 36.42v-8.84zM55 25.277v-5.7l5-2.857v5.7zm-1 18.571L49.015 41 54 38.152 58.985 41zm-6-27.125l5 2.857v5.7l-5-2.86zm6-4.571L58.985 15 54 17.848 49.015 15zm-22 39.7L27.015 49 32 46.152 36.985 49zm-6-22.129l5 2.857v5.7l-5-2.86zm7 2.857l5-2.857v5.7l-5 2.857zm-1-1.732L27.015 28 32 25.152 36.985 28zM26 8.723l5 2.857v5.7l-5-2.86zm7 2.857l5-2.857v5.7l-5 2.857zm-1-7.428L36.985 7 32 9.848 27.015 7zM11 19.58l5-2.857v5.7l-5 2.857zm-1-7.428L14.985 15 10 17.848 5.015 15zm-6 4.571l5 2.857v5.7l-5-2.86zm6 27.125L5.015 41 10 38.152 14.985 41zm-6-1.125l5 2.857v5.7l-5-2.86zm7 8.554v-5.7l5-2.857v5.7zm7-2.832V41a1 1 0 00-.5-.868L11 36.42v-8.84l6.5-3.712A1 1 0 0018 23v-3.382l6.969-3.484L31 19.58v3.84l-6.5 3.712A1 1 0 0024 28v8a1 1 0 00.5.868L31 40.58v3.84l-6.5 3.712A1 1 0 0024 49v3.2zm8 2.278l5 2.857v5.7l-5-2.86zm7 8.554v-5.7l5-2.857v5.7zm6.5-11.145L33 44.42v-3.84l6.5-3.712A1 1 0 0040 36v-8a1 1 0 00-.5-.868L33 23.42v-3.84l6.031-3.446L46 19.618V23a1 1 0 00.5.868L53 27.58v8.84l-6.5 3.712A1 1 0 0046 41v7.445L40 52.2V49a1 1 0 00-.5-.868zm8.5-5.409l5 2.857v5.7l-5-2.86zm7 8.554v-5.7l5-2.857v5.7z" fill="#fff"/></svg>