<svg xmlns="http://www.w3.org/2000/svg" height="389" width="389.12"><rect width="100%" height="100%" fill="none"/><g class="currentLayer" fill="#fff"><path d="M64.852 232.168h53.476a6.828 6.828 0 006.828-6.828 6.828 6.828 0 00-6.828-6.828H64.852c-28.23 0-51.2-22.965-51.2-51.2 0-26.285 19.692-48.171 45.797-50.91a6.824 6.824 0 005.602-9.39 47.446 47.446 0 01-3.61-18.203c0-26.352 21.438-47.79 47.786-47.79 13.343 0 26.199 5.696 35.257 15.626 1.457 1.597 3.563 2.453 5.735 2.183a6.802 6.802 0 005.172-3.3c15.586-26.18 42.984-41.813 73.3-41.813 47.055 0 85.336 38.277 85.336 85.332 0 3.02-.195 6.183-.59 9.672-.23 2.02.715 4.011 2.122 5.476 1.406 1.465 3.632 2.18 5.68 2.067 1.003-.07 2.003-.149 3.027-.149 28.234 0 51.199 22.965 51.199 51.2s-22.965 51.199-51.2 51.199h-78.503a6.828 6.828 0 00-6.828 6.828 6.828 6.828 0 006.828 6.828h78.504c35.761 0 64.855-29.094 64.855-64.856 0-34.64-27.3-63.019-61.512-64.765a88.65 88.65 0 00.07-3.5c0-54.578-44.406-98.988-98.988-98.988-31.828 0-61.91 15.68-80.394 41.41-10.95-9.043-24.79-14.102-39.07-14.102-33.88 0-61.442 27.563-61.442 61.442 0 5.238.66 10.402 1.969 15.421C20.87 111.06 0 136.852 0 167.312c0 35.762 29.094 64.856 64.852 64.856zm0 0"/><path d="M177.492 327.738a6.827 6.827 0 006.828-6.824V143.422h55.582c3.055 11.742 13.653 20.476 26.336 20.476 15.059 0 27.309-12.25 27.309-27.304s-12.25-27.309-27.309-27.309c-12.683 0-23.281 8.738-26.336 20.48h-62.41a6.827 6.827 0 00-6.824 6.829v177.492H34.133v-21.45c11.742-3.05 20.48-13.652 20.48-26.335 0-15.059-12.25-27.309-27.304-27.309C12.25 238.992 0 251.242 0 266.301c0 12.683 8.738 23.285 20.48 26.336v28.277a6.824 6.824 0 006.829 6.824zm88.746-204.797c7.532 0 13.657 6.121 13.657 13.653s-6.125 13.652-13.657 13.652c-7.527 0-13.652-6.121-13.652-13.652s6.125-13.653 13.652-13.653zM13.652 266.301c0-7.531 6.125-13.653 13.657-13.653 7.527 0 13.652 6.122 13.652 13.653 0 7.527-6.125 13.652-13.652 13.652-7.532 0-13.657-6.125-13.657-13.652zm0 0"/><path d="M102.398 266.3a6.823 6.823 0 00-6.824 6.825 6.824 6.824 0 006.824 6.828h47.79a6.824 6.824 0 006.824-6.828v-81.918a6.82 6.82 0 00-1.582-4.371l-29.907-35.887c2.61-4.183 4.184-9.074 4.184-14.36 0-15.054-12.25-27.304-27.309-27.304-15.054 0-27.304 12.25-27.304 27.305 0 15.058 12.25 27.308 27.304 27.308 4.809 0 9.262-1.355 13.192-3.546l27.77 33.324V266.3zM88.746 136.595c0-7.532 6.125-13.653 13.652-13.653 7.532 0 13.657 6.121 13.657 13.653 0 2.64-.79 5.082-2.09 7.176a6.775 6.775 0 00-2.281 1.234c-1.008.836-1.594 1.933-1.985 3.086-2.113 1.347-4.61 2.156-7.3 2.156-7.528 0-13.653-6.121-13.653-13.652zM368.64 266.3H225.282v-55.58c11.742-3.055 20.48-13.653 20.48-26.34 0-15.055-12.253-27.305-27.308-27.305s-27.305 12.25-27.305 27.305c0 12.687 8.735 23.285 20.477 26.34v62.406a6.828 6.828 0 006.828 6.828h150.188a6.824 6.824 0 006.824-6.828 6.823 6.823 0 00-6.824-6.824zM204.8 184.38c0-7.527 6.122-13.652 13.653-13.652s13.652 6.125 13.652 13.652c0 7.531-6.12 13.656-13.652 13.656s-13.652-6.125-13.652-13.656zm157.013 163.839H311.16l-25.34-44.344a6.822 6.822 0 00-5.925-3.441h-61.442a6.827 6.827 0 100 13.652h57.48l25.34 44.348a6.825 6.825 0 005.926 3.441h54.614c3.769 0 6.828-3.059 6.828-6.828s-3.059-6.828-6.829-6.828zm-88.747 0h-21.449c-3.055-11.742-13.652-20.48-26.336-20.48-12.687 0-23.285 8.738-26.34 20.48H34.133c-3.77 0-6.824 3.058-6.824 6.828s3.054 6.828 6.824 6.828H198.94c3.055 11.742 13.653 20.477 26.34 20.477 12.684 0 23.281-8.735 26.336-20.477h21.45c3.769 0 6.828-3.059 6.828-6.828s-3.06-6.828-6.829-6.828zm-47.785 20.48c-7.531 0-13.656-6.12-13.656-13.652s6.125-13.652 13.656-13.652c7.528 0 13.653 6.12 13.653 13.652s-6.125 13.652-13.653 13.652zm0 0"/></g></svg>