<svg xmlns="http://www.w3.org/2000/svg" height="496" width="496"><rect width="100%" height="100%" fill="none"/><g class="currentLayer"><path d="M0 0v416h48v13.77l19.64 6.55-9.257 18.512 30.785 30.785 18.52-9.265L114.23 496h43.532l6.543-19.648 18.52 9.265 30.784-30.785-9.257-18.512L224 429.77v-43.532l-19.64-6.55 9.257-18.512-30.785-30.785-18.52 9.265L157.77 320h-43.532l-6.543 19.648-18.52-9.265-30.784 30.785 9.257 18.512L48 386.23V400H16V80h464v260.895l-3.672-1.223a110.349 110.349 0 00-11.726-28.207l9.293-18.586-30.782-30.781-18.586 9.293c-8.87-5.207-18.328-9.145-28.199-11.727L389.77 240h-43.532l-6.558 19.664a110.974 110.974 0 00-28.2 11.727l-18.585-9.293-30.782 30.78 9.293 18.587a110.768 110.768 0 00-11.726 28.207L240 346.23v43.532l19.672 6.558a110.349 110.349 0 0011.726 28.207l-9.293 18.586 30.782 30.782 18.586-9.293a111.398 111.398 0 0028.199 11.726L346.23 496h43.532l6.558-19.664a110.974 110.974 0 0028.2-11.727l18.585 9.293 30.782-30.78-9.293-18.587a110.768 110.768 0 0011.726-28.207L496 389.77V0zm64 397.77l18.352-6.122 1.351-3.527c.402-1.023.8-2.043 1.242-3.031l1.551-3.465-8.648-17.297 14.472-14.473 17.297 8.649 3.461-1.55c.984-.442 1.984-.84 3-1.227l3.563-1.344L125.77 336h20.468l6.13 18.383 3.562 1.344c1.015.386 2.015.785 3 1.226l3.46 1.55 17.298-8.648 14.472 14.473-8.648 17.297 1.55 3.465c.45 1 .84 2.008 1.243 3.031l1.351 3.527L208 397.77v20.468l-18.352 6.121-1.351 3.528c-.402 1.023-.8 2.043-1.242 3.035l-1.551 3.46 8.648 17.298-14.472 14.472-17.297-8.648-3.461 1.55c-.984.442-1.984.84-3 1.227l-3.563 1.344L146.23 480h-20.468l-6.13-18.383-3.562-1.344a56.084 56.084 0 01-3-1.226l-3.46-1.55-17.297 8.648-14.473-14.473 8.648-17.297-1.55-3.465c-.45-1-.84-2.008-1.243-3.031l-1.351-3.527L64 418.23zm416-19.54l-17.266 5.762-.964 4.45c-2.418 11.124-6.81 21.671-13.036 31.359l-2.468 3.832 8.168 16.328-14.473 14.473-16.32-8.168-3.832 2.46c-9.688 6.235-20.243 10.618-31.368 13.036l-4.449.965L378.23 480h-20.468L352 462.734l-4.45-.964c-11.124-2.418-21.679-6.81-31.366-13.036l-3.832-2.46-16.32 8.167-14.473-14.472 8.168-16.328-2.47-3.832c-6.226-9.688-10.616-20.243-13.034-31.36l-.965-4.449L256 378.23v-20.468L273.266 352l.964-4.45c2.418-11.124 6.81-21.671 13.036-31.359l2.468-3.832-8.168-16.328 14.473-14.472 16.32 8.168 3.832-2.461c9.688-6.235 20.243-10.618 31.368-13.036l4.449-.964L357.77 256h20.468L384 273.266l4.45.964c11.124 2.418 21.679 6.81 31.366 13.036l3.832 2.46 16.32-8.167 14.473 14.472-8.168 16.328 2.47 3.832c6.226 9.688 10.616 20.243 13.034 31.36l.965 4.449L480 357.77zM16 64V16h464v48zm0 0" fill="#fff"/><path d="M32 32h16v16H32zm32 0h16v16H64zm32 0h16v16H96zm40 416c22.055 0 40-17.945 40-40s-17.945-40-40-40-40 17.945-40 40 17.945 40 40 40zm0-64c13.23 0 24 10.77 24 24s-10.77 24-24 24-24-10.77-24-24 10.77-24 24-24zm232-96c-44.113 0-80 35.887-80 80s35.887 80 80 80 80-35.887 80-80-35.887-80-80-80zm0 144c-35.29 0-64-28.71-64-64s28.71-64 64-64 64 28.71 64 64-28.71 64-64 64zm0 0" fill="#fff"/><path d="M368 336c-17.648 0-32 14.352-32 32s14.352 32 32 32 32-14.352 32-32-14.352-32-32-32zm0 48c-8.824 0-16-7.176-16-16s7.176-16 16-16 16 7.176 16 16-7.176 16-16 16zM69 254.246L156.809 184 69 113.754l-10 12.492L131.191 184 59 241.754zM104 240h176v16H104zm0 0" fill="#fff"/><path d="M288 96h176v16H288zm0 0"/><path d="M288 96h176v16H288zm0 32h176v16H288zm0 32h176v16H288zm0 32h176v16H288zm0 0" fill="#fff"/></g></svg>