<svg xmlns="http://www.w3.org/2000/svg" height="512" width="512"><rect width="100%" height="100%" fill="none"/><g class="currentLayer"><g class="selected" fill="#fff"><path d="M79.6 259.719l26.717-12.7 18.806 7.79 9.912 27.872a8 8 0 007.532 5.319h34.866a8 8 0 007.537-5.319l9.912-27.872 18.806-7.79 26.717 12.7a8.006 8.006 0 009.092-1.569l24.653-24.65a8 8 0 001.569-9.092l-12.7-26.717 7.79-18.806 27.872-9.912a8 8 0 005.319-7.54v-34.866a8 8 0 00-5.319-7.537l-27.872-9.912-7.79-18.806 12.7-26.717a8 8 0 00-1.569-9.095L249.5 29.85a8 8 0 00-9.092-1.569l-26.717 12.7-18.806-7.79-9.915-27.872A8 8 0 00177.433 0h-34.866a8 8 0 00-7.537 5.319l-9.912 27.872-18.806 7.79-26.712-12.7a8 8 0 00-9.1 1.569L45.85 54.5a8 8 0 00-1.569 9.1l12.7 26.717-7.79 18.806-27.872 9.907A8 8 0 0016 126.567v34.866a8 8 0 005.319 7.537l27.872 9.912 7.79 18.806-12.7 26.717a8 8 0 001.569 9.095l24.65 24.65a8.006 8.006 0 009.1 1.569zm-6.476-64.869l-10.512-25.376A7.994 7.994 0 0057.9 165L32 155.787v-23.574L57.9 123a7.994 7.994 0 004.71-4.476L73.124 93.15a8 8 0 00-.165-6.5l-11.8-24.829 16.666-16.665 24.829 11.8a7.992 7.992 0 006.5.165l25.376-10.512A7.994 7.994 0 00139 41.9l9.213-25.9h23.574L181 41.9a7.994 7.994 0 004.476 4.71l25.374 10.514a7.992 7.992 0 006.5-.165l24.829-11.8 16.669 16.669-11.8 24.829a8 8 0 00-.165 6.5l10.512 25.376A7.994 7.994 0 00262.1 123l25.9 9.211v23.574L262.1 165a7.994 7.994 0 00-4.71 4.476l-10.514 25.374a8 8 0 00.165 6.5l11.8 24.829-16.669 16.669-24.829-11.8a7.992 7.992 0 00-6.5-.165l-25.376 10.512A7.994 7.994 0 00181 246.1l-9.213 25.9h-23.574L139 246.1a7.994 7.994 0 00-4.476-4.71l-25.374-10.514a7.992 7.992 0 00-6.5.165l-24.829 11.8-16.665-16.666 11.8-24.829a8 8 0 00.168-6.496z"/><path d="M160 216a72 72 0 10-72-72 72.081 72.081 0 0072 72zm0-128a56 56 0 11-56 56 56.063 56.063 0 0156-56zm154.8 297.474l-10.51 25.376a8 8 0 00.165 6.5l11.8 24.829-16.669 16.669-24.829-11.8a8 8 0 00-6.5-.165l-25.367 10.505a8 8 0 00-4.477 4.71L229.2 488h-23.571l-9.212-25.9a7.994 7.994 0 00-4.476-4.71l-25.376-10.512a7.992 7.992 0 00-6.5.165l-24.829 11.8-16.669-16.669 11.8-24.829a8 8 0 00.165-6.5l-10.51-25.376a8 8 0 00-4.704-4.469l-25.9-9.21v-23.577l25.9-9.211a8 8 0 004.711-4.476l10.51-25.376a8 8 0 00-.165-6.5l-14.227-29.928L101.7 279.6l12.7 26.717-7.789 18.806-27.872 9.911a8 8 0 00-5.319 7.538v34.866a8 8 0 005.319 7.538l27.872 9.911 7.789 18.806-12.7 26.717a8 8 0 001.57 9.092l24.65 24.648a8 8 0 009.091 1.569l26.717-12.7 18.8 7.79 9.913 27.872a8 8 0 007.542 5.319h34.866a8 8 0 007.538-5.319l9.911-27.872 18.806-7.79 26.716 12.7a8 8 0 009.091-1.569l24.654-24.65a8 8 0 001.57-9.092l-12.7-26.717 9.15-22.091zM331.565 270.5l-24.654-24.65a8 8 0 00-9.091-1.569l-29.927 14.227 6.869 14.451 24.829-11.8 16.669 16.669-11.8 24.829a8 8 0 00-.165 6.5l9.076 21.912 14.781-6.124-7.714-18.626 12.7-26.717a8 8 0 00-1.573-9.102z"/><path d="M217.416 432a72 72 0 10-72-72 72.081 72.081 0 0072 72zm0-128a56 56 0 11-56 56 56.063 56.063 0 0156-56zm273.265-160.97l-27.872-9.912-7.79-18.806 12.7-26.717a8 8 0 00-1.569-9.095L441.5 53.85a8 8 0 00-9.092-1.569l-26.717 12.7-18.806-7.79-9.911-27.872A8 8 0 00369.433 24h-34.866a8 8 0 00-7.538 5.319l-9.911 27.872-22.091 9.152 6.123 14.781 25.376-10.512A8 8 0 00331 65.9l9.21-25.9h23.574L373 65.9a7.994 7.994 0 004.476 4.71l25.374 10.514a8 8 0 006.5-.165l24.829-11.8 16.669 16.669-11.8 24.829a8 8 0 00-.165 6.5l10.512 25.376A8 8 0 00454.1 147l25.9 9.21v23.574L454.1 189a8 8 0 00-4.71 4.477l-10.514 25.373a8 8 0 00.165 6.5l11.8 24.829-20.661 20.661 11.32 11.31 24.65-24.65a8 8 0 001.569-9.092l-12.7-26.717 7.79-18.806 27.872-9.911a8 8 0 005.319-7.541v-34.866a8 8 0 00-5.319-7.537z"/><path d="M352 224a55.792 55.792 0 01-51.932-35l-14.832 6a72 72 0 1030.757-89.364l8.014 13.849A56 56 0 11352 224zm90.745 80H416v-32a24 24 0 00-48 0v68.687l-5.372-5.374a24.971 24.971 0 00-35.315 35.315L368 411.313V424h-8a8 8 0 00-8 8v72h16v-64h96v64h16v-72a8 8 0 00-8-8h-8v-12.687l16.4-16.4A53.255 53.255 0 00442.745 304zm26.343 79.6l-18.745 18.745A8 8 0 00448 408v16h-64v-16a8 8 0 00-2.343-5.657l-43.029-43.03a8.97 8.97 0 1112.685-12.685l19.03 19.029A8 8 0 00384 360v-88a8 8 0 0116 0v40a8 8 0 008 8h34.745a37.255 37.255 0 0126.343 63.6z"/><path d="M432 456h16v16h-16z"/></g></g></svg>