<svg xmlns="http://www.w3.org/2000/svg" viewBox="0 0 468.028 468.028"><path d="M146.014 452.028a8 8 0 01-3.736-15.08l137.736-72.488-105.384-49.184a8 8 0 01-1.056-13.904l87.304-58.2-56.128-49.128a8 8 0 01-1.496-11.214 8 8 0 0112.024-.785l64 56a8 8 0 01-.8 12.672l-84.192 56.08 107.112 49.984a8 8 0 01.344 14.328l-152 80a8.016 8.016 0 01-3.728.919z" fill="#3b869e"/><path d="M396.822 248.028a7.91 7.91 0 01-4.64-1.496 8 8 0 01-1.897-11.154l.033-.047c47.595-66.618 47.595-156.118 0-222.736a8 8 0 0113.016-9.304c51.573 72.183 51.573 169.161 0 241.344a7.998 7.998 0 01-6.512 3.393z" fill="#f7ba61"/><path d="M347.614 220.252a8.001 8.001 0 01-6.304-12.912c38.241-48.959 38.241-117.665 0-166.624a8 8 0 0112.624-9.832c42.741 54.741 42.741 131.547 0 186.288a8.003 8.003 0 01-6.32 3.08zM71.206 248.028a8 8 0 01-6.512-3.352c-51.573-72.183-51.573-169.161 0-241.344a8 8 0 0113.016 9.304c-47.595 66.618-47.595 156.118 0 222.736a8 8 0 01-1.817 11.167l-.047.033a7.915 7.915 0 01-4.64 1.456z" fill="#f7ba61"/><path d="M120.414 220.252a7.998 7.998 0 01-6.32-3.08c-42.741-54.741-42.741-131.547 0-186.288a8 8 0 0112.624 9.832c-38.241 48.959-38.241 117.665 0 166.624a8 8 0 01-6.304 12.912z" fill="#f7ba61"/><path d="M120.414 220.252a7.998 7.998 0 01-6.32-3.08c-42.741-54.741-42.741-131.547 0-186.288a8 8 0 0112.624 9.832c-38.241 48.959-38.241 117.665 0 166.624a8 8 0 01-6.304 12.912zm49.528-28.016a7.999 7.999 0 01-5.824-2.52c-34.804-36.877-34.804-94.499 0-131.376a8 8 0 0111.305-.437 8 8 0 01.437 11.305c-.029.031-.057.062-.087.092-29.013 30.718-29.013 78.738 0 109.456a7.999 7.999 0 01-5.831 13.48zm177.672 28.016a8.001 8.001 0 01-6.304-12.912c38.241-48.959 38.241-117.665 0-166.624a8 8 0 0112.624-9.832c42.741 54.741 42.741 131.547 0 186.288a8.003 8.003 0 01-6.32 3.08zm-49.528-28.016a8 8 0 01-5.832-13.48c29.013-30.718 29.013-78.738 0-109.456a8 8 0 1111.657-10.96c34.804 36.877 34.804 94.499 0 131.376a8.003 8.003 0 01-5.825 2.52z" fill="#f7ba61"/><path d="M298.086 192.236a8 8 0 01-5.832-13.48c29.013-30.718 29.013-78.738 0-109.456a8 8 0 1111.657-10.96c34.804 36.877 34.804 94.499 0 131.376a8.003 8.003 0 01-5.825 2.52zm-128.144 0a7.999 7.999 0 01-5.824-2.52c-34.804-36.877-34.804-94.499 0-131.376a8 8 0 0111.305-.437 8 8 0 01.437 11.305c-.029.031-.057.062-.087.092-29.013 30.718-29.013 78.738 0 109.456a7.999 7.999 0 01-5.831 13.48z" fill="#f7ba61"/><path d="M330.014 468.028a8 8 0 01-7.744-6.008l-78.464-305.992h-19.584L145.766 462.02a8.006 8.006 0 01-15.504-4l80-312a8 8 0 017.752-5.992h32a7.998 7.998 0 017.752 6.008l80 312a8 8 0 01-5.755 9.741l-.013.003a8.145 8.145 0 01-1.984.248z" fill="#69b0bb"/><path d="M234.014 164.028c-22.091 0-40-17.909-40-40s17.909-40 40-40 40 17.909 40 40c-.027 22.08-17.92 39.973-40 40z" fill="#dc4d41"/></svg>