<svg xmlns="http://www.w3.org/2000/svg" viewBox="0 0 512 512"><path d="M361.755 243.18V458c0 29.78-24.23 54-54 54h-103.5c-29.77 0-54-24.22-54-54V243.18c0-29.77 24.23-53.99 54-53.99h103.5c29.77 0 54 24.22 54 53.99z" fill="#00ceb4"/><path d="M361.755 243.18V458c0 29.78-24.23 54-54 54h-51.73V189.19h51.73c29.77 0 54 24.22 54 53.99z" fill="#008878"/><g fill="#78777f"><path d="M298.395 144.9l-28.44 9.55a14.7 14.7 0 00-13.93-10.02h-.02c-6.33 0-11.94 4.03-13.95 10.04l-28.45-9.53a44.662 44.662 0 0142.4-30.51h.02a44.681 44.681 0 0142.37 30.47z"/><path d="M350.925 126.84l-28.44 9.55c-9.6-28.56-36.3-47.76-66.46-47.76h-.01c-30.19 0-56.91 19.23-66.48 47.84l-28.45-9.52c13.67-40.86 51.82-68.32 94.93-68.32h.01c43.07 0 81.2 27.41 94.9 68.21z"/><path d="M402.805 105.49l-28.44 9.55C357.285 64.17 309.725 30 256.025 30c-53.76 0-101.33 34.23-118.38 85.17l-28.45-9.52C130.345 42.46 189.355 0 256.025 0c66.6 0 125.59 42.39 146.78 105.49z"/></g><path fill="#ffb74f" d="M211.59 278.72h29.667v29.667H211.59z"/><path fill="#ff9a00" d="M270.75 278.72h29.667v29.667H270.75z"/><path fill="#ffb74f" d="M211.59 336.93h29.667v29.667H211.59z"/><path fill="#ff9a00" d="M270.75 336.93h29.667v29.667H270.75z"/><path fill="#ffb74f" d="M211.59 395.14h29.667v29.667H211.59z"/><path fill="#ff9a00" d="M270.75 395.14h29.667v29.667H270.75z"/><g fill="#3c3a41"><path d="M256.025 144.43v-30a44.681 44.681 0 0142.37 30.47l-28.44 9.55a14.7 14.7 0 00-13.93-10.02zm0-55.8v-30c43.07 0 81.2 27.41 94.9 68.21l-28.44 9.55c-9.6-28.56-36.3-47.76-66.46-47.76z"/><path d="M402.805 105.49l-28.44 9.55C357.285 64.17 309.725 30 256.025 30V0c66.6 0 125.59 42.39 146.78 105.49z"/></g></svg>