<svg xmlns="http://www.w3.org/2000/svg" viewBox="0 0 512 512"><path d="M430.73 337.27H24.381V28.444a8.128 8.128 0 018.127-8.127h390.095a8.128 8.128 0 018.127 8.127V337.27z" fill="#edebed"/><path fill="#99e7ff" d="M138.16 85.33h178.79v146.29H138.16z"/><path fill="#59d8ff" d="M138.16 85.33h178.79v24.381H138.16z"/><path fill="#99e7ff" d="M24.381 85.33h81.27v146.29h-81.27z"/><path fill="#59d8ff" d="M24.381 85.33h81.27v24.381h-81.27z"/><path d="M138.16 190.98h178.79v16.254H138.16zm-113.779 0h81.27v16.254h-81.27z" fill="#9c969e"/><path fill="#b7b2b8" d="M24.381 272.25h406.35v65.02H24.381z"/><path d="M56.889 304.76h40.635v32.508H56.889zm97.521 0h40.635v32.508H154.41zm97.53 0h40.635v32.508H251.94z" fill="#59d8ff"/><path d="M195.048 345.397h-40.635a8.125 8.125 0 01-8.127-8.127v-32.508a8.125 8.125 0 018.127-8.127h40.635a8.125 8.125 0 018.127 8.127v32.508a8.125 8.125 0 01-8.127 8.127zm-32.508-16.254h24.381v-16.254H162.54v16.254zm130.031 16.254h-40.635a8.125 8.125 0 01-8.127-8.127v-32.508a8.125 8.125 0 018.127-8.127h40.635a8.125 8.125 0 018.127 8.127v32.508a8.125 8.125 0 01-8.127 8.127zm-32.508-16.254h24.381v-16.254h-24.381v16.254zM97.524 345.397H56.889a8.125 8.125 0 01-8.127-8.127v-32.508a8.125 8.125 0 018.127-8.127h40.635a8.125 8.125 0 018.127 8.127v32.508a8.125 8.125 0 01-8.127 8.127zm-32.508-16.254h24.381v-16.254H65.016v16.254z" fill="#9c969e"/><path d="M446.984 345.397H8.127c-4.492 0-8.127-3.639-8.127-8.127s3.635-8.127 8.127-8.127h438.857c4.492 0 8.127 3.639 8.127 8.127s-3.635 8.127-8.127 8.127z" fill="#c9c6ca"/><path d="M373.841 491.683h113.778c13.465 0 24.381-10.916 24.381-24.381V256c0-13.465-10.916-24.381-24.381-24.381H373.841c-13.465 0-24.381 10.916-24.381 24.381v211.302c0 13.465 10.916 24.381 24.381 24.381z" fill="#6f6571"/><path d="M373.841 467.302V256c0-13.465 10.916-24.381 24.381-24.381h-24.381c-13.465 0-24.381 10.916-24.381 24.381v211.302c0 13.465 10.916 24.381 24.381 24.381h24.381c-13.465 0-24.381-10.916-24.381-24.381z" fill="#5d5360"/><path d="M442.222 195.746a8.102 8.102 0 01-5.746-2.381 8.138 8.138 0 00-11.492 0 8.123 8.123 0 01-11.492 0 8.123 8.123 0 010-11.492c9.508-9.508 24.968-9.508 34.476 0a8.123 8.123 0 010 11.492 8.1 8.1 0 01-5.746 2.381z" fill="#00c8b4"/><path d="M499.69 138.278a8.102 8.102 0 01-5.746-2.381c-34.857-34.849-91.571-34.849-126.429 0a8.123 8.123 0 01-11.492 0 8.123 8.123 0 010-11.492c41.19-41.19 108.222-41.19 149.413 0a8.123 8.123 0 010 11.492 8.1 8.1 0 01-5.746 2.381z" fill="#99e9df"/><path d="M470.96 167.012a8.102 8.102 0 01-5.746-2.381c-19.016-19.008-49.952-19.008-68.968 0a8.123 8.123 0 01-11.492 0c-3.175-3.175-3.175-8.321 0-11.492 25.349-25.349 66.603-25.349 91.952 0 3.175 3.171 3.175 8.317 0 11.492a8.1 8.1 0 01-5.746 2.381z" fill="#4bd7c8"/><path d="M491.683 459.175H369.778a8.128 8.128 0 01-8.127-8.127V272.254a8.128 8.128 0 018.127-8.127h121.905a8.128 8.128 0 018.127 8.127v178.794a8.128 8.128 0 01-8.127 8.127z" fill="#99e9df"/><path d="M455.111 345.397h-48.762c-8.977 0-16.254-7.277-16.254-16.254s7.277-16.254 16.254-16.254h48.762c8.977 0 16.254 7.277 16.254 16.254s-7.277 16.254-16.254 16.254z" fill="#ccf4ef"/><path d="M406.349 345.397c-8.977 0-16.254-7.277-16.254-16.254s7.277-16.254 16.254-16.254 16.254 7.277 16.254 16.254-7.277 16.254-16.254 16.254z" fill="#fff"/><path d="M316.952 239.746H138.159a8.125 8.125 0 01-8.127-8.127V85.333a8.125 8.125 0 018.127-8.127h178.794a8.125 8.125 0 018.127 8.127v146.286a8.126 8.126 0 01-8.128 8.127zm-170.666-16.254h162.54V93.46h-162.54v130.032z" fill="#b7b2b8"/><path d="M406.349 377.905h48.762c8.977 0 16.254 7.277 16.254 16.254s-7.277 16.254-16.254 16.254h-48.762c-8.977 0-16.254-7.277-16.254-16.254s7.277-16.254 16.254-16.254z" fill="#ccf4ef"/><path d="M455.111 377.905c8.977 0 16.254 7.277 16.254 16.254s-7.277 16.254-16.254 16.254-16.254-7.277-16.254-16.254 7.277-16.254 16.254-16.254z" fill="#fff"/><path d="M113.778 231.619V85.333a8.125 8.125 0 00-8.127-8.127h-81.27V93.46h73.143v130.032H24.381v16.254h81.27a8.125 8.125 0 008.127-8.127z" fill="#b7b2b8"/></svg>