<svg height="512" viewBox="0 0 511.996 511.996" width="512" xmlns="http://www.w3.org/2000/svg"><path d="M433.215 215.056l-.185.001a4.097 4.097 0 01-3.818-2.494c-5.621-13.143-18.763-22.366-34.089-22.366s-28.468 9.224-34.089 22.366a4.097 4.097 0 01-3.818 2.494l-.186-.001A24.476 24.476 0 00335.963 227c13.853 1.247 25.499 10.037 30.701 22.198a4.096 4.096 0 003.818 2.494l.185-.001a24.473 24.473 0 0120.961 11.776h41.036c13.71 0 25.262-11.106 25.001-24.673-.252-13.153-11.102-23.738-24.45-23.738z" fill="#b1dbfc"/><path d="M369.711 238.793c.252-13.152 11.103-23.737 24.451-23.737h.186a4.097 4.097 0 003.818-2.494c3.139-7.338 8.625-13.449 15.523-17.421a37.094 37.094 0 00-18.566-4.946c-15.327 0-28.468 9.224-34.089 22.367a4.097 4.097 0 01-3.818 2.494h-.186A24.476 24.476 0 00335.963 227c13.853 1.247 25.499 10.037 30.701 22.198a4.096 4.096 0 003.818 2.494h.186c.936 0 1.856.063 2.764.165-2.428-3.796-3.813-8.275-3.721-13.064z" fill="#8bcaff"/><path d="M371.355 251.204l-.184.001a4.066 4.066 0 01-3.788-2.475c-5.577-13.038-18.614-22.189-33.819-22.189s-28.242 9.151-33.819 22.189a4.067 4.067 0 01-3.788 2.475l-.184-.001c-4.145 0-8.046 2.044-11.459 3.857h17.815c5.023 0 8.08 4.072 8.08 9.095v35.075h60.599c13.602 0 25.062-11.018 24.804-24.478-.249-13.048-11.014-23.549-24.257-23.549z" fill="#dfebfa"/><path d="M312.244 274.754c.25-13.048 11.015-23.549 24.257-23.549h.184a4.066 4.066 0 003.788-2.475c2.812-6.576 7.527-12.158 13.455-16.081a36.785 36.785 0 00-20.364-6.108c-15.205 0-28.242 9.15-33.819 22.189a4.066 4.066 0 01-3.788 2.475h-.184c-4.145 0-8.046 2.044-11.459 3.857h17.815c5.023 0 8.08 4.072 8.08 9.095v35.075h26.838c-13.602 0-25.061-11.017-24.803-24.478z" fill="#b1dbfc"/><path d="M155.324 336.17h-45.613a6.978 6.978 0 00-6.978 6.978v42.118h59.569v-42.118a6.978 6.978 0 00-6.978-6.978z" fill="#6c7ed6"/><path d="M140.157 336.171h-30.446a6.978 6.978 0 00-6.978 6.978v42.118h30.446v-42.118a6.978 6.978 0 016.978-6.978z" fill="#4f67d2"/><path d="M186.123 383.237H79.926a6.978 6.978 0 00-6.978 6.978v114.169h120.153V390.215a6.978 6.978 0 00-6.978-6.978z" fill="#4f67d2"/><path d="M110.372 383.237H79.926a6.978 6.978 0 00-6.978 6.978v114.169h30.446V390.215a6.978 6.978 0 016.978-6.978z" fill="#324ccc"/><path d="M166.295 426.785H98.74a7.612 7.612 0 110-15.224h67.555a7.612 7.612 0 110 15.224zm0 29.274H98.74a7.612 7.612 0 110-15.224h67.555a7.612 7.612 0 110 15.224zm0 29.274H98.74a7.612 7.612 0 110-15.224h67.555a7.612 7.612 0 110 15.224z" fill="#6c7ed6"/><path d="M251.655 264.878a7.612 7.612 0 01-7.612-7.612v-53.373a7.612 7.612 0 1115.224 0v53.373a7.612 7.612 0 01-7.612 7.612z" fill="#b1dbfc"/><path d="M384.113 396.393l-26.455-29.188a8.381 8.381 0 00-6.21-2.753H318.59a8.38 8.38 0 00-8.381 8.381v131.551h76.075V402.022a8.379 8.379 0 00-2.171-5.629z" fill="#fee55a"/><path d="M349.036 364.453H318.59a8.38 8.38 0 00-8.381 8.381v131.551h30.446V372.833a8.382 8.382 0 018.381-8.38z" fill="#ffd301"/><path d="M302.13 254.047H201.181a9.095 9.095 0 00-9.095 9.095v241.242h119.138V263.142a9.095 9.095 0 00-9.094-9.095z" fill="#dfebfa"/><path d="M231.627 254.047h-30.446a9.095 9.095 0 00-9.095 9.095v241.242h30.446V263.142a9.096 9.096 0 019.095-9.095z" fill="#b1dbfc"/><path d="M223.417 475.325a7.612 7.612 0 01-7.612-7.612v-172.11a7.612 7.612 0 1115.224 0v172.11a7.613 7.613 0 01-7.612 7.612zm28.238 0a7.612 7.612 0 01-7.612-7.612v-172.11a7.612 7.612 0 1115.224 0v172.11a7.612 7.612 0 01-7.612 7.612zm28.239 0a7.612 7.612 0 01-7.612-7.612v-172.11a7.612 7.612 0 1115.224 0v172.11a7.612 7.612 0 01-7.612 7.612z" fill="#695d67"/><path d="M399.091 511.996H61.938a7.612 7.612 0 110-15.224h337.153a7.612 7.612 0 110 15.224z" fill="#b1dbfc"/><path d="M386.284 411.562h-37.53a7.612 7.612 0 100 15.224h37.53zm0 29.274h-37.53a7.612 7.612 0 100 15.224h37.53zm0 29.274h-37.53a7.612 7.612 0 100 15.224h37.53z" fill="#ffa85d"/><path d="M346.352 72.046c-25.295-25.295-58.925-39.224-94.696-39.224s-69.402 13.93-94.696 39.224c-6.409 6.409-16.8 6.409-23.208 0-6.409-6.409-6.409-16.799 0-23.208C165.244 17.344 207.117 0 251.656 0s86.411 17.344 117.904 48.838c6.409 6.409 6.409 16.8 0 23.208-6.404 6.403-16.793 6.415-23.208 0z" fill="#60b8fe"/><path d="M295.802 122.596c-24.343-24.343-63.951-24.342-88.293-.001-6.408 6.409-16.799 6.409-23.208 0s-6.409-16.799 0-23.208c37.139-37.14 97.569-37.14 134.709 0 6.409 6.408 6.409 16.799.001 23.208-6.409 6.41-16.801 6.409-23.209.001zm-44.145 55.548c-9.055 0-16.411-7.384-16.411-16.411 0-9.746 8.539-17.306 18.019-16.323 7.947.649 14.803 7.604 14.803 16.323-.001 8.995-7.316 16.411-16.411 16.411z" fill="#60b8fe"/><path d="M369.56 55.636c-6.403 6.403-16.793 6.415-23.208 0-25.294-25.295-58.925-39.224-94.696-39.224s-69.402 13.93-94.696 39.224c-6.409 6.409-16.8 6.409-23.208 0a16.373 16.373 0 01-2.59-3.399c-3.632 6.277-2.781 14.437 2.59 19.809 6.409 6.409 16.8 6.409 23.208 0 25.294-25.295 58.925-39.225 94.696-39.225s69.402 13.93 94.696 39.225c6.415 6.415 16.805 6.403 23.208 0 5.371-5.371 6.223-13.532 2.59-19.809a16.434 16.434 0 01-2.59 3.399zm-50.549 50.549c-6.409 6.409-16.8 6.409-23.208 0-24.343-24.342-63.951-24.342-88.293 0-6.408 6.409-16.799 6.409-23.208 0a16.373 16.373 0 01-2.59-3.399c-3.632 6.277-2.781 14.438 2.59 19.809 6.409 6.409 16.8 6.409 23.208 0 24.343-24.341 63.951-24.342 88.293 0 6.408 6.408 16.799 6.409 23.208 0 5.371-5.371 6.222-13.532 2.59-19.809a16.382 16.382 0 01-2.59 3.399zm-67.354 55.549c-6.061 0-11.347-3.317-14.189-8.211a16.218 16.218 0 00-2.222 8.21c0 9.027 7.356 16.411 16.411 16.411 9.095 0 16.411-7.416 16.411-16.411 0-3.009-.831-5.799-2.227-8.201-2.837 4.882-8.107 8.202-14.184 8.202z" fill="#23a8fe"/></svg>