<svg height="511pt" viewBox="-52 0 511 511.996" width="511pt" xmlns="http://www.w3.org/2000/svg"><path d="M185.914 416.074c-35.66 0-68.851-10.242-97.121-27.687v114.886c52.34 11.63 141.906 11.63 194.246 0V388.387c-28.273 17.445-61.46 27.687-97.125 27.687zm0-319.058c35.664 0 68.852 10.242 97.125 27.687V8.723c-52.34-11.63-141.906-11.63-194.246 0v115.98c28.27-17.445 61.46-27.687 97.121-27.687zm0 0" fill="#6c4127"/><path d="M353.676 229.457c1.242 8.672 2.11 17.473 2.11 26.488 0 9.016-.868 17.817-2.11 26.489h52.976v-52.977zm0 0" fill="#839594"/><path d="M371.332 255.945c0 102.403-83.012 185.418-185.418 185.418C83.512 441.363.496 358.348.496 255.945c0-102.402 83.016-185.418 185.418-185.418 102.406 0 185.418 83.016 185.418 185.418zm0 0" fill="#e7eced"/><path d="M336.016 255.945c0 82.899-67.204 150.098-150.102 150.098-82.898 0-150.098-67.2-150.098-150.098 0-82.898 67.2-150.101 150.098-150.101 82.899 0 150.102 67.203 150.102 150.101zm0 0" fill="#28384c"/><path d="M203.574 485.508h-35.316c-4.875 0-8.832-3.953-8.832-8.828s3.957-8.828 8.832-8.828h35.316a8.829 8.829 0 010 17.656zm0 0" fill="#f7e6a1"/><path d="M247.723 264.773H124.109l-17.66 70.637h158.93zm0 0" fill="#ebba16"/><path d="M177.086.086V35.21c0 4.871 3.957 8.828 8.828 8.828 4.875 0 8.832-3.957 8.832-8.828V.086a666.43 666.43 0 00-17.66 0zm0 0" fill="#f7e6a1"/><path d="M221.234 255.945l-35.32 35.317-35.316-35.317c-20.688-20.687-22.832-52.086-2.145-72.78 20.688-20.688 54.23-20.688 74.918 0 20.695 20.687 18.55 52.093-2.137 72.78zm0 0" fill="#dd352e"/><path d="M194.734 238.285h-17.629a8.836 8.836 0 01-8.84-8.836v-17.633a8.839 8.839 0 018.84-8.84h17.63a8.839 8.839 0 018.84 8.84v17.633a8.836 8.836 0 01-8.84 8.836zm0 0" fill="#fff" fill-rule="evenodd"/></svg>