<svg xmlns="http://www.w3.org/2000/svg" viewBox="0 0 511.171 511.171"><path d="M479.171 330.252c-5.891 0-10.667-4.776-10.667-10.667v-21.333c0-29.455-23.878-53.333-53.333-53.333s-53.333 23.878-53.333 53.333v21.333c0 5.891-4.776 10.667-10.667 10.667s-10.667-4.776-10.667-10.667v-21.333c0-41.237 33.429-74.667 74.667-74.667s74.667 33.429 74.667 74.667v21.333c0 5.891-4.776 10.667-10.667 10.667z" fill="#455a64"/><path d="M329.838 308.919h170.667c5.891 0 10.667 4.776 10.667 10.667v128c0 5.891-4.776 10.667-10.667 10.667H329.838c-5.891 0-10.667-4.776-10.667-10.667v-128c0-5.892 4.776-10.667 10.667-10.667z" fill="#ffc107"/><g fill="#455a64"><path d="M415.171 415.585c-5.891 0-10.667-4.776-10.667-10.667v-32c0-5.891 4.776-10.667 10.667-10.667s10.667 4.776 10.667 10.667v32c0 5.892-4.776 10.667-10.667 10.667z"/><path d="M415.171 394.252c-11.782 0-21.333-9.551-21.333-21.333 0-11.782 9.551-21.333 21.333-21.333s21.333 9.551 21.333 21.333c0 11.782-9.551 21.333-21.333 21.333z"/></g><g fill="#64b5f6"><path d="M443.566 153.185A296.023 296.023 0 00223.15 52.919 296.002 296.002 0 002.776 153.185c-3.965 4.359-3.645 11.107.715 15.072 4.359 3.965 11.107 3.645 15.072-.715a274.88 274.88 0 01204.587-93.29 274.9 274.9 0 01204.608 93.355c3.965 4.359 10.713 4.679 15.072.715 4.359-3.965 4.679-10.713.715-15.072l.021-.065z"/><path d="M223.171 138.252a222.381 222.381 0 00-165.547 75.349c-3.965 4.359-3.645 11.107.715 15.072 4.359 3.965 11.107 3.645 15.072-.715a201.255 201.255 0 01149.76-68.373 201.236 201.236 0 01149.76 68.267c3.965 4.359 10.713 4.679 15.072.715 4.359-3.965 4.679-10.713.715-15.072a222.34 222.34 0 00-165.547-75.243z"/><path d="M223.15 223.585a148.605 148.605 0 00-110.677 50.347c-3.965 4.359-3.645 11.107.715 15.072 4.359 3.965 11.107 3.645 15.072-.715 45.374-52.43 124.659-58.151 177.089-12.777a125.603 125.603 0 0112.777 12.777c3.965 4.359 10.713 4.679 15.072.715s4.679-10.713.715-15.072a148.636 148.636 0 00-110.763-50.347z"/><circle cx="223.171" cy="362.252" r="53.333"/></g></svg>